<svg version="1.1" id="Layer_1" xmlns="http://www.w3.org/2000/svg" xmlns:xlink="http://www.w3.org/1999/xlink" x="0px" y="0px"
	 width="100%" viewBox="0 0 1024 640" enable-background="new 0 0 1024 640" xml:space="preserve">
<path fill="#000000" opacity="1.000000" stroke="none" 
	d="
M637.644043,107.382057 
	C642.720459,114.014320 647.483459,120.437225 652.464905,126.686043 
	C657.670593,133.216232 658.287720,142.285599 665.138916,147.552063 
	C663.255127,150.084732 661.269104,149.315765 659.584473,149.331116 
	C651.087158,149.408508 642.583008,149.535080 634.092834,149.271378 
	C629.779907,149.137436 628.191467,150.497025 628.329407,154.961197 
	C628.720459,167.612656 628.825378,180.275818 628.860535,192.934891 
	C629.033997,255.389801 629.362549,317.845642 629.141602,380.299408 
	C629.082031,397.109253 632.752319,401.821259 650.862366,406.161255 
	C658.941895,408.097473 667.458313,407.696045 675.578552,405.153259 
	C691.516235,400.162506 700.639282,386.604248 700.655212,367.808380 
	C700.698730,316.486359 700.669922,265.164307 700.678406,213.842255 
	C700.681702,194.043579 712.984131,181.710617 732.730530,181.687027 
	C738.895813,181.679657 745.061218,181.666351 751.226440,181.690689 
	C765.637451,181.747559 776.386414,189.473373 781.079590,203.084839 
	C781.506592,204.323135 781.833130,205.752487 782.671021,206.667709 
	C788.935486,213.510574 790.462463,221.588165 790.446411,230.661469 
	C790.276794,326.306793 790.341980,421.952515 790.343872,517.598145 
	C790.344055,524.704895 790.349854,524.706177 797.444458,524.697205 
	C802.776550,524.690430 808.108582,524.672607 813.440674,524.674744 
	C815.278381,524.675476 817.267395,524.537476 818.395142,526.351379 
	C819.700195,528.450500 817.799133,529.720825 816.794006,531.129578 
	C814.602417,534.201172 812.318726,537.207092 809.863586,540.522034 
	C815.487305,542.658508 820.953369,540.778442 827.377869,542.329651 
	C802.223938,574.982788 777.470642,607.115967 752.401001,639.659729 
	C746.499146,632.803589 740.939392,626.884277 735.983948,620.496094 
	C713.012390,590.882690 690.202576,561.143738 667.363464,531.427795 
	C666.308228,530.054810 664.369751,528.847290 665.348999,526.704712 
	C666.371399,524.467834 668.581726,524.697449 670.577454,524.689392 
	C678.908813,524.655945 687.244690,524.466125 695.569519,524.687805 
	C699.578613,524.794495 700.791992,523.277710 700.729004,519.434814 
	C700.554260,508.773407 700.505615,498.103271 700.756470,487.444794 
	C700.858521,483.108215 699.367493,482.092773 695.204224,482.457489 
	C670.342041,484.635529 645.683167,483.013550 621.281311,477.768860 
	C601.730042,473.566742 586.277405,462.841888 573.651428,447.642822 
	C569.716736,442.906219 565.625061,438.300385 561.642334,433.603241 
	C546.825928,416.129242 541.208191,394.892883 539.998352,373.003265 
	C537.552979,328.756256 539.029114,284.402069 539.044250,240.095093 
	C539.053894,211.789124 539.759827,183.480621 539.777100,155.167831 
	C539.779907,150.535706 538.441528,148.988922 533.818665,149.275848 
	C527.896667,149.643402 521.934570,149.365097 515.535461,149.365097 
	C516.781311,143.981812 521.546570,141.555313 523.118469,136.365936 
	C518.721069,136.365936 514.786438,136.494293 510.865326,136.319885 
	C508.336304,136.207397 505.009827,137.524200 503.594635,134.533585 
	C502.175842,131.535461 505.375916,129.770706 506.870117,127.822243 
	C528.660156,99.408028 550.567749,71.083977 572.455933,42.745075 
	C580.141418,32.794590 580.139038,32.812836 587.993774,43.004677 
	C604.463440,64.374672 620.948181,85.733040 637.644043,107.382057 
M566.449951,55.919151 
	C546.778931,81.408920 527.107910,106.898689 507.427338,132.400864 
	C509.597900,134.185471 511.331909,133.610291 512.924744,133.622925 
	C521.422791,133.690414 529.922974,133.756027 538.419373,133.624237 
	C541.683716,133.573593 542.805359,134.730972 542.636353,138.031799 
	C541.664978,157.008789 542.799622,175.992172 542.614563,194.983963 
	C542.091980,248.635025 542.536377,302.294800 542.254761,355.949341 
	C542.169128,372.268921 544.322083,388.118256 549.257385,403.596405 
	C557.203186,428.515747 573.540039,446.110840 597.085999,457.020905 
	C607.595703,461.890594 618.940857,463.758667 630.415833,465.062714 
	C651.815674,467.494659 673.198669,468.476929 694.619568,465.531311 
	C697.351013,465.155701 700.015503,464.039734 703.207886,464.940308 
	C703.207886,485.639404 703.207886,506.209045 703.207886,527.630859 
	C691.802917,527.630859 680.798279,527.630859 668.402832,527.630859 
	C693.393005,560.006042 717.438599,591.157471 741.985291,622.958008 
	C766.603088,591.050415 790.634583,559.902588 814.647400,528.779053 
	C812.645020,526.873474 810.888000,527.431030 809.300354,527.416565 
	C801.802185,527.348389 794.303223,527.384766 786.804504,527.375977 
	C779.656860,527.367554 779.632324,527.363220 779.630676,520.346008 
	C779.617004,461.355896 779.609497,402.365753 779.607239,343.375641 
	C779.605591,300.882751 779.616760,258.389893 779.617920,215.897003 
	C779.618469,196.079559 768.052856,184.418564 748.376526,184.391953 
	C743.377380,184.385193 738.377869,184.362900 733.379089,184.407059 
	C714.931641,184.570007 703.679382,196.779373 703.767944,215.284286 
	C704.011963,266.274353 704.013367,317.266815 703.795776,368.257019 
	C703.737488,381.915192 699.732788,394.307709 687.878845,402.713654 
	C678.124207,409.630951 666.958679,410.959808 655.429443,410.147003 
	C636.336060,408.800964 622.946594,397.213898 619.073303,378.704956 
	C618.122009,374.159058 617.693848,369.522003 617.695557,364.823822 
	C617.722961,291.502960 617.678528,218.182098 617.651672,144.861237 
	C617.647583,133.664841 617.649902,133.665115 628.646057,133.665817 
	C636.403503,133.666321 644.160950,133.665924 651.918396,133.665924 
	C652.182434,133.206116 652.446411,132.746307 652.710449,132.286514 
	C628.708801,101.217621 604.707153,70.148727 580.206848,38.434349 
	C575.286377,44.683159 571.086426,50.016895 566.449951,55.919151 
z"/>
<path fill="#000000" opacity="1.000000" stroke="none" 
	d="
M390.680115,321.999939 
	C390.697083,306.334290 390.115997,291.139221 390.861389,276.009491 
	C392.232239,248.182755 403.642731,226.231964 430.226379,214.410110 
	C439.879456,210.117371 450.237061,207.911469 460.789246,207.769180 
	C481.950836,207.483810 503.118805,207.657364 524.284119,207.673599 
	C530.154602,207.678101 531.577698,209.043793 531.937012,214.942932 
	C532.088867,217.435791 532.039307,219.940460 532.106750,222.439072 
	C532.150513,224.062332 532.588318,225.565170 534.509033,225.638260 
	C538.019775,225.771881 538.333313,227.994171 538.326538,230.766220 
	C538.278870,250.264862 538.228455,269.764099 538.351807,289.262054 
	C538.375061,292.943207 536.907166,293.544525 533.552795,293.555603 
	C518.563049,293.605042 503.574341,293.976654 488.585327,294.237671 
	C486.423096,294.275360 484.324219,294.555542 482.133972,296.120117 
	C484.113007,297.486389 485.973114,297.379730 487.921967,297.319641 
	C498.914429,296.980621 509.903625,296.996002 520.901917,297.368011 
	C525.705688,297.530518 527.355774,299.789795 527.403992,304.211914 
	C527.443481,307.835602 526.905029,311.519501 528.080017,315.385437 
	C533.906860,314.775635 534.252319,318.369537 534.183289,322.891754 
	C533.987610,335.721313 534.125305,348.555756 534.103577,361.388245 
	C534.091675,368.397064 534.065918,368.392700 527.294861,368.391937 
	C514.629028,368.390503 501.962952,368.356812 489.297363,368.417450 
	C484.990234,368.438080 480.725403,368.895813 476.772430,371.968750 
	C478.801453,371.968750 480.830475,371.971100 482.859497,371.968384 
	C496.358612,371.950409 509.857788,371.903961 523.356873,371.924347 
	C530.058716,371.934448 531.586487,373.405121 531.936829,380.033752 
	C532.059875,382.361603 531.979370,384.699524 532.045898,387.031281 
	C532.089783,388.569122 532.261292,390.456573 534.158691,390.453857 
	C538.452393,390.447693 538.293396,393.207245 538.290405,396.178192 
	C538.271545,415.176880 538.223328,434.176300 538.379395,453.173889 
	C538.411316,457.060822 537.143921,458.425720 533.200684,458.390228 
	C514.203308,458.219360 495.182129,458.846558 476.210815,458.115479 
	C454.116882,457.264069 433.874603,451.200928 418.702606,433.539337 
	C416.026093,430.423615 412.533020,428.009338 409.014404,424.917267 
	C407.679749,428.825104 408.447479,432.428223 408.362976,435.928192 
	C408.214172,442.091003 408.280060,448.259857 408.315552,454.425842 
	C408.328888,456.744202 407.703308,458.249634 404.996063,458.294556 
	C387.651306,458.582153 370.327484,458.888641 353.861725,451.956879 
	C346.254578,448.754425 339.086578,444.810303 333.375183,438.832550 
	C325.461517,430.549774 316.079224,423.757446 309.634064,413.952240 
	C300.441345,399.967072 296.059143,384.397888 295.882843,368.150208 
	C295.327606,316.992706 295.654266,265.825531 295.674011,214.662094 
	C295.676270,208.868347 296.907776,207.687454 302.827087,207.677307 
	C323.659058,207.641586 344.491180,207.642944 365.323151,207.678375 
	C371.090637,207.688187 372.695526,209.266754 372.998016,215.030350 
	C373.120209,217.358002 373.027191,219.696198 373.084503,222.028305 
	C373.121643,223.539505 373.128693,225.459991 375.030701,225.581863 
	C379.850250,225.890671 379.308167,229.225418 379.307190,232.411652 
	C379.293701,275.075653 379.293060,317.739655 379.289978,360.403656 
	C379.289856,362.070190 379.392609,363.743164 379.280884,365.401917 
	C379.052246,368.797424 380.924774,370.142151 383.957733,370.669983 
	C389.709320,371.670959 390.666779,370.931488 390.674652,364.995270 
	C390.693420,350.830200 390.680511,336.665039 390.680115,321.999939 
M510.496613,212.334930 
	C491.524902,212.830826 472.539703,211.502090 453.567841,213.216446 
	C422.026764,216.066574 399.376678,238.456787 396.141571,269.899445 
	C395.112793,279.898102 395.423889,289.866272 395.373993,299.848083 
	C395.255707,323.509003 395.344604,347.170868 395.283813,370.832184 
	C395.278717,372.813660 396.085144,375.247803 392.949463,376.093262 
	C383.685669,378.591003 372.207428,372.241119 369.663086,362.935883 
	C368.117950,357.284973 367.838135,351.458008 367.839233,345.616913 
	C367.847137,303.292908 367.759766,260.968506 367.946777,218.645340 
	C367.969360,213.535583 366.430878,212.138031 361.410156,212.216187 
	C343.251923,212.498810 325.086548,212.322739 306.923889,212.327148 
	C300.305908,212.328751 300.288757,212.338150 300.287567,218.882111 
	C300.278870,266.038391 300.309296,313.194733 300.241669,360.350922 
	C300.230896,367.878998 300.859833,375.321777 302.377319,382.668091 
	C308.669678,413.130310 326.276093,432.945740 356.996765,440.220947 
	C367.944733,442.813629 379.115906,442.785126 390.283142,442.657745 
	C397.024048,442.580872 397.028961,442.624939 397.020203,436.100342 
	C397.005646,425.269531 396.940948,414.438416 397.006226,403.608124 
	C397.018219,401.617340 396.413483,399.339996 398.642395,397.305145 
	C401.735168,404.842438 404.584839,412.089355 409.688934,418.171509 
	C422.407135,433.326935 439.433258,439.602173 458.349823,441.623535 
	C479.273224,443.859314 500.302887,442.102570 521.273438,442.716217 
	C525.795654,442.848511 526.923950,441.181305 526.879395,436.924011 
	C526.694519,419.263275 526.815063,401.599365 526.818726,383.936615 
	C526.820190,377.093903 526.812683,377.185852 519.894714,377.057159 
	C503.746033,376.756744 487.568726,377.940033 471.449463,376.253937 
	C464.403229,375.516907 461.342041,372.377960 460.899750,365.894257 
	C460.432251,359.040802 463.464569,355.209198 470.474457,353.497925 
	C473.103027,352.856232 475.730499,352.699738 478.400421,352.700439 
	C491.064301,352.703735 503.731873,352.523773 516.390198,352.788483 
	C521.063965,352.886230 522.890015,351.624390 522.770752,346.663055 
	C522.474426,334.339813 522.706055,322.004272 522.689758,309.673737 
	C522.679810,302.149506 522.646851,302.287689 514.991028,302.119080 
	C501.847443,301.829620 488.655304,303.162018 475.565674,301.207367 
	C469.080841,300.238983 465.942871,296.865814 465.642059,291.229309 
	C465.280090,284.445831 468.050201,280.566223 474.670685,278.862915 
	C477.898590,278.032410 481.199066,277.688324 484.563507,277.705902 
	C497.060394,277.771179 509.558044,277.684601 522.054993,277.746460 
	C524.936707,277.760712 526.842224,277.273560 526.827576,273.719513 
	C526.748596,254.557510 526.782043,235.394958 526.828430,216.232712 
	C526.834961,213.531525 525.809692,212.249054 522.990540,212.329178 
	C519.161438,212.437988 515.326477,212.342575 510.496613,212.334930 
z"/>
<path fill="#000000" opacity="1.000000" stroke="none" 
	d="
M289.967163,452.781372 
	C290.344696,457.216797 288.431152,458.399048 284.628876,458.373718 
	C264.967285,458.242554 245.303360,458.204254 225.642670,458.390472 
	C221.150894,458.433044 219.008636,457.121613 219.670135,452.449677 
	C220.214874,448.602173 218.667130,447.159637 214.664520,447.193573 
	C206.552963,447.262360 205.735703,446.212585 205.733917,437.798859 
	C205.722733,385.310120 205.727509,332.821350 205.685959,280.332642 
	C205.684433,278.408356 206.187469,276.384186 204.873367,273.946106 
	C193.610687,282.041748 182.480362,290.042267 170.930725,298.344177 
	C167.699310,293.080536 164.697632,288.434265 158.521332,287.019867 
	C148.502243,284.725372 140.820770,289.627350 139.413818,299.794800 
	C139.163437,301.604095 139.147644,303.450317 139.093750,305.281586 
	C138.780960,315.909180 138.783707,315.975647 149.410446,316.674622 
	C153.316376,316.931549 155.164062,318.867096 155.252899,322.652893 
	C155.307617,324.984589 155.371201,327.322021 155.270508,329.649933 
	C155.144791,332.556824 155.367203,334.952484 159.161896,335.249725 
	C161.384445,335.423828 161.329239,337.426727 161.329666,339.118866 
	C161.334396,357.448212 161.296829,375.777679 161.364517,394.106781 
	C161.375397,397.055054 160.305725,398.382965 157.285614,398.301727 
	C153.123001,398.189697 148.935272,398.536102 144.794571,398.216461 
	C140.425690,397.879150 138.960342,399.436310 139.016190,403.852142 
	C139.218475,419.846008 138.926544,435.846497 139.167206,451.839264 
	C139.241531,456.777588 137.835602,458.508209 132.675079,458.432953 
	C113.349983,458.151123 94.017174,458.205261 74.690010,458.402435 
	C70.181602,458.448456 68.064522,457.132263 68.731430,452.473480 
	C69.351974,448.138519 67.164116,447.131531 63.217022,447.212555 
	C56.279522,447.354919 54.850822,445.850403 54.849049,439.196686 
	C54.836281,391.373657 54.448093,343.545868 55.009567,295.729340 
	C55.371098,264.940338 67.301804,239.083939 91.966156,219.863144 
	C122.260963,196.254562 168.462341,195.777939 199.357590,218.582901 
	C201.202789,219.944916 203.048386,221.306396 205.736252,223.289780 
	C205.736252,219.558716 205.720566,216.635818 205.740158,213.713165 
	C205.765579,209.921906 207.535324,207.702652 211.475449,207.699326 
	C233.470459,207.680725 255.465576,207.671814 277.460510,207.720505 
	C281.343872,207.729111 283.165955,210.014496 283.244324,213.773697 
	C283.296417,216.272141 283.349487,218.776077 283.243134,221.270798 
	C283.129700,223.931259 283.670074,225.849792 286.870087,226.001877 
	C289.204773,226.112823 289.833832,227.863739 289.899811,229.858704 
	C289.976898,232.189468 289.991882,234.523132 289.991699,236.855530 
	C289.986572,308.673004 289.976288,380.490448 289.967163,452.781372 
M59.939587,376.500000 
	C59.935787,396.661682 60.026333,416.824188 59.853298,436.984406 
	C59.816029,441.326050 61.223309,442.777313 65.607346,442.730774 
	C84.434731,442.530884 103.266708,442.510742 122.093773,442.718750 
	C126.562233,442.768127 127.794762,441.248566 127.742271,436.949097 
	C127.544960,420.788269 127.833244,404.620941 127.580643,388.461670 
	C127.507118,383.758270 129.131744,382.240967 133.619522,382.582336 
	C137.429596,382.872131 141.300186,382.382843 145.107269,382.691437 
	C149.625992,383.057770 150.784332,381.131744 150.733780,376.881378 
	C150.541595,360.720337 150.660873,344.555603 150.656433,328.392273 
	C150.654495,321.341339 150.642792,321.480988 143.508118,321.293121 
	C138.563919,321.162903 132.326523,323.424347 129.006699,320.232635 
	C125.431152,316.795074 127.779297,310.403442 127.772018,305.333191 
	C127.760841,297.537323 126.744560,289.652863 128.850632,281.951477 
	C130.869370,274.569427 135.726639,270.945770 143.387268,270.640442 
	C151.711731,270.308655 157.127930,274.614105 161.087784,282.062775 
	C177.403671,270.208160 193.278244,258.674194 209.363312,246.987289 
	C210.722534,250.006500 210.350815,252.032043 210.351349,254.000092 
	C210.368118,314.820892 210.408813,375.641846 210.263458,436.462311 
	C210.252243,441.158539 211.397858,442.825806 216.344254,442.753632 
	C234.836517,442.483795 253.335068,442.650452 271.831268,442.643616 
	C278.610779,442.641144 278.613983,442.628693 278.613495,435.643890 
	C278.608612,367.491272 278.607056,299.338684 278.587219,231.186066 
	C278.585815,226.357330 278.277557,221.523285 278.428680,216.701645 
	C278.540344,213.138016 277.057037,212.243073 273.689972,212.265671 
	C254.194870,212.396454 234.697968,212.398941 215.202881,212.266373 
	C211.522507,212.241348 210.125473,213.427429 210.299561,217.161652 
	C210.543304,222.389679 210.361053,227.637573 210.361053,232.952438 
	C209.238663,232.830048 208.851974,232.900467 208.625336,232.742020 
	C207.947433,232.268036 207.289536,231.748047 206.698685,231.169540 
	C187.929779,212.792389 165.361969,205.225143 139.303207,207.074051 
	C120.311127,208.421570 103.721367,215.279297 89.694366,228.058990 
	C70.164528,245.852203 60.395412,268.230865 60.064587,294.517914 
	C59.724911,321.508209 59.957382,348.505676 59.939587,376.500000 
z"/>
<path fill="#000000" opacity="1.000000" stroke="none" 
	d="
M875.228149,202.961945 
	C897.888611,199.814285 918.886169,203.243317 937.953796,215.431702 
	C954.150635,225.785004 965.834351,239.940887 972.443420,258.191071 
	C975.945618,267.862000 981.185791,276.898987 982.723389,287.281586 
	C986.449890,312.444611 982.931763,335.786011 965.604797,355.644440 
	C954.555786,368.307709 940.164917,374.646606 923.883423,377.173126 
	C914.982361,378.554413 906.037903,379.021912 897.000305,378.523132 
	C892.908936,378.297333 891.246643,377.001190 891.585144,372.897705 
	C891.802979,370.256500 892.062744,367.521362 887.896912,367.297028 
	C883.792297,367.075958 881.851685,367.964294 881.882141,372.669098 
	C882.050354,398.661804 881.954041,424.656342 881.912170,450.650177 
	C881.899841,458.311707 881.845886,458.313812 874.105225,458.314850 
	C855.276184,458.317383 836.445862,458.203278 817.618896,458.402130 
	C813.115967,458.449677 810.982788,457.125885 811.668335,452.471893 
	C812.312378,448.099426 810.085693,447.151611 806.163086,447.219604 
	C798.885925,447.345703 797.725281,446.056915 797.724792,438.847900 
	C797.721375,389.359192 797.475769,339.868378 797.864502,290.382629 
	C798.066650,264.647430 806.409668,242.009659 826.690369,224.882233 
	C840.665833,213.079651 856.950439,206.330978 875.228149,202.961945 
M900.722412,277.992706 
	C907.083801,290.291260 901.426880,300.726227 887.352661,302.132843 
	C883.557373,302.512146 882.241882,303.688477 882.287048,307.588470 
	C882.477844,324.081116 882.498291,340.579041 882.274841,357.070923 
	C882.213928,361.563599 883.881775,362.861328 888.111023,362.768890 
	C895.766296,362.601562 903.416931,362.801880 911.037964,361.691345 
	C928.552734,359.139282 944.169922,352.900574 955.805664,338.890869 
	C976.653992,313.788849 978.628235,271.938629 960.470337,244.321259 
	C936.843811,208.386520 894.919189,198.858917 857.287231,212.751480 
	C834.881714,221.022873 817.919800,235.445633 808.639954,257.955048 
	C803.661987,270.029541 802.545288,282.843475 802.430298,295.664062 
	C802.165771,325.152496 802.359253,354.644958 802.358643,384.135803 
	C802.358276,401.963593 802.347961,419.791382 802.328125,437.619171 
	C802.325256,440.204956 802.104675,442.684143 805.975281,442.668945 
	C826.135315,442.589935 846.295959,442.600037 866.456177,442.649109 
	C869.253601,442.655914 870.412903,441.376617 870.408203,438.742401 
	C870.390442,428.927155 870.363953,419.111938 870.349548,409.296692 
	C870.291870,369.978699 870.233887,330.660675 870.200256,291.342651 
	C870.199219,290.185760 870.504395,289.031677 870.606018,287.871002 
	C871.161865,281.521149 873.136597,275.743927 879.783752,273.753662 
	C886.991699,271.595551 894.295776,271.320282 900.722412,277.992706 
M888.192810,290.536530 
	C885.744324,292.086212 883.904663,293.996613 883.917786,297.163483 
	C892.029236,298.039520 897.304504,294.638489 897.458984,288.471893 
	C894.379272,287.989319 891.577881,288.868591 888.192810,290.536530 
z"/>
</svg>