<?xml version="1.0" standalone="no"?>
<!DOCTYPE svg PUBLIC "-//W3C//DTD SVG 20010904//EN"
 "http://www.w3.org/TR/2001/REC-SVG-20010904/DTD/svg10.dtd">
<svg version="1.0" xmlns="http://www.w3.org/2000/svg"
 width="6008.000000pt" height="2273.000000pt" viewBox="0 0 6008.000000 2273.000000"
 preserveAspectRatio="xMidYMid meet">

<g transform="translate(0.000000,2273.000000) scale(0.100000,-0.100000)"
fill="#000000" stroke="none">
<path d="M52152 20462 c-18 -20 -36 -42 -40 -48 -4 -6 -14 -13 -23 -16 -31
-12 -33 -123 -3 -158 7 -8 16 -28 19 -45 11 -48 42 -140 54 -161 17 -32 33
-114 41 -219 8 -118 3 -355 -10 -405 -4 -19 -16 -64 -25 -100 -10 -36 -23 -92
-30 -125 -25 -115 -36 -148 -55 -173 -11 -13 -20 -32 -20 -41 0 -10 -15 -48
-34 -87 -19 -38 -42 -93 -51 -121 -10 -29 -21 -53 -25 -53 -4 0 -13 -13 -20
-30 -7 -16 -16 -30 -21 -30 -5 0 -9 -5 -9 -12 0 -6 -8 -20 -17 -31 -10 -10
-29 -38 -43 -61 -32 -55 -78 -123 -107 -159 -12 -15 -28 -46 -34 -67 -7 -22
-15 -40 -20 -40 -8 0 -89 -131 -107 -173 -7 -15 -12 -41 -12 -57 0 -16 -9 -37
-20 -48 -17 -16 -38 -62 -79 -177 -6 -16 -25 -82 -43 -145 l-33 -115 0 -291
c0 -264 2 -294 18 -311 9 -11 17 -25 17 -32 0 -32 104 -91 159 -91 49 0 116
48 148 105 20 36 21 47 16 229 -6 203 13 421 43 499 7 20 14 49 14 64 0 15 8
36 19 47 10 12 26 44 35 73 10 28 23 57 31 63 8 7 23 36 34 64 11 29 31 70 46
91 14 21 28 50 32 64 3 14 20 42 37 62 17 20 45 60 61 89 42 75 47 81 78 114
15 16 32 46 37 67 6 20 14 39 18 41 14 6 78 114 97 163 10 28 18 62 17 76 -1
15 6 33 19 45 28 25 49 67 49 97 0 13 8 35 18 48 10 13 27 58 36 99 10 41 25
89 33 106 8 17 18 60 23 95 5 35 14 91 20 124 7 33 16 80 20 105 11 58 12 343
1 395 -38 180 -53 239 -66 258 -8 12 -15 33 -15 47 0 62 -95 250 -126 250 -8
0 -14 9 -14 21 0 15 -5 19 -16 15 -9 -3 -24 4 -38 19 -17 18 -34 25 -62 25
-32 0 -45 -7 -72 -38z"/>
<path d="M53025 19274 c-11 -3 -24 -11 -30 -18 -5 -7 -20 -18 -31 -24 -33 -18
-74 -95 -74 -139 0 -45 -26 -163 -47 -213 -9 -19 -26 -71 -39 -114 -13 -44
-31 -87 -39 -96 -9 -10 -23 -39 -33 -66 -9 -27 -27 -61 -40 -74 -12 -13 -28
-42 -34 -65 -7 -22 -25 -53 -40 -68 -15 -16 -31 -41 -35 -55 -3 -15 -9 -29
-12 -32 -3 -3 -20 -25 -36 -50 -17 -24 -37 -52 -47 -61 -19 -20 -77 -111 -98
-154 -8 -16 -22 -39 -31 -50 -10 -11 -27 -45 -39 -75 -12 -30 -28 -62 -36 -71
-8 -9 -21 -38 -30 -65 -9 -27 -21 -54 -26 -61 -14 -18 -48 -115 -48 -138 0
-12 -8 -37 -18 -57 -11 -20 -25 -65 -31 -100 -7 -34 -19 -83 -26 -108 -7 -25
-16 -87 -19 -139 -7 -112 12 -201 49 -225 12 -8 37 -28 54 -44 52 -47 66 -58
85 -65 23 -9 106 29 106 48 0 8 7 15 15 15 8 0 15 5 15 11 0 6 9 22 20 36 18
23 20 41 20 173 0 106 4 160 15 190 8 23 15 53 15 67 0 13 9 41 19 61 27 52
43 101 48 145 3 20 9 37 14 37 14 0 59 85 59 113 0 15 4 27 9 27 17 0 61 77
61 108 0 19 5 32 13 32 14 0 57 60 57 81 1 8 14 30 30 49 17 19 30 38 30 44 0
5 18 28 40 52 22 24 40 51 40 60 0 9 14 33 30 54 17 21 30 41 30 44 0 3 16 26
35 52 21 28 35 57 35 74 0 16 6 33 14 37 19 11 56 83 56 109 0 12 7 27 15 34
8 7 15 20 15 29 0 9 7 29 15 44 8 16 17 50 21 75 3 26 11 50 17 54 13 8 58
197 64 273 6 76 -13 122 -68 165 -41 33 -104 47 -154 34z"/>
<path d="M18065 16876 c-40 -15 -71 -45 -135 -131 -19 -26 -56 -73 -81 -104
-25 -31 -60 -77 -78 -103 -17 -26 -55 -74 -83 -105 -28 -32 -62 -76 -76 -98
-14 -22 -45 -62 -67 -90 -23 -27 -46 -58 -51 -68 -6 -10 -33 -46 -62 -80 -91
-110 -178 -221 -205 -262 -37 -54 -91 -124 -126 -160 -15 -16 -39 -48 -51 -70
-13 -22 -36 -56 -52 -75 -16 -19 -59 -72 -96 -117 -37 -45 -78 -98 -92 -118
-14 -19 -41 -53 -60 -74 -19 -21 -48 -58 -63 -82 -15 -24 -44 -64 -63 -89
-114 -148 -264 -339 -297 -377 -20 -25 -58 -75 -82 -111 -25 -37 -54 -78 -65
-92 -12 -14 -27 -49 -34 -78 -12 -44 -12 -60 -1 -103 17 -62 64 -115 115 -129
19 -5 144 -10 278 -10 133 0 242 -3 242 -6 0 -12 -114 -156 -127 -161 -43 -17
10 -23 187 -23 l200 0 0 -767 c0 -643 -3 -774 -15 -808 -12 -34 -14 -311 -15
-1935 0 -1373 3 -1905 11 -1930 6 -19 15 -82 19 -140 11 -136 25 -237 38 -280
6 -19 23 -93 38 -165 15 -71 33 -144 40 -162 8 -18 14 -48 14 -66 0 -35 18
-95 65 -221 27 -73 165 -343 197 -386 62 -83 147 -200 155 -214 5 -9 74 -85
154 -168 137 -144 269 -263 334 -303 33 -20 154 -98 196 -126 49 -33 244 -127
309 -150 36 -12 115 -48 175 -80 103 -54 262 -122 330 -140 17 -4 71 -19 120
-33 331 -92 966 -152 1513 -144 l282 4 0 -453 0 -453 -357 0 c-230 0 -372 -4
-398 -11 -74 -21 -135 -106 -135 -189 0 -55 23 -102 91 -182 61 -72 89 -109
159 -212 8 -12 42 -54 75 -94 33 -39 75 -91 93 -114 18 -24 47 -61 65 -84 40
-51 122 -162 161 -217 16 -23 50 -66 75 -96 47 -54 59 -69 144 -183 86 -114
151 -199 183 -236 17 -21 75 -95 129 -167 105 -140 133 -175 181 -233 17 -20
47 -60 65 -88 30 -46 77 -106 167 -214 16 -19 45 -60 65 -90 19 -30 49 -68 67
-85 17 -16 41 -46 53 -65 35 -57 127 -158 156 -169 76 -30 164 -28 227 7 20
10 28 2 110 -103 49 -63 91 -115 95 -115 5 0 37 40 184 230 19 25 94 122 167
217 258 334 481 622 763 988 157 204 302 392 322 419 21 26 52 65 68 86 17 21
84 108 150 195 66 87 135 175 153 195 17 21 32 40 32 44 0 3 -81 6 -180 6 -99
0 -180 3 -180 6 0 3 12 20 26 38 109 133 165 211 173 243 21 76 6 169 -36 215
-46 51 -57 53 -393 58 l-315 5 -5 3670 c-4 2653 -9 3680 -17 3705 -28 88 -63
164 -97 209 -22 29 -26 46 -26 100 -1 36 -8 84 -16 106 -8 22 -21 63 -28 91
-14 56 -12 51 -74 149 -58 90 -244 275 -309 309 -28 13 -92 40 -144 58 l-94
33 -465 0 -465 0 -102 -36 c-56 -20 -128 -53 -160 -74 -71 -47 -192 -162 -243
-231 -55 -73 -117 -198 -140 -279 -20 -69 -20 -109 -20 -2090 0 -1760 -2
-2026 -15 -2069 -8 -27 -15 -74 -15 -105 0 -136 -94 -335 -212 -448 -54 -51
-192 -126 -295 -159 -337 -109 -771 -20 -961 196 -43 48 -54 69 -61 112 -5 30
-12 1339 -15 2961 l-6 2907 450 0 c247 0 450 3 450 6 0 4 -39 58 -87 121 l-86
114 17 36 c42 88 29 176 -37 252 -23 26 -58 69 -77 95 -19 26 -51 66 -70 89
-19 24 -82 104 -140 180 -139 182 -156 205 -187 252 -15 22 -43 59 -63 81 -19
23 -52 63 -73 90 -20 27 -68 87 -105 134 -37 47 -76 99 -86 115 -11 17 -61 82
-111 145 -51 63 -120 151 -154 195 -34 44 -81 104 -104 134 -60 77 -85 111
-142 188 -27 37 -70 93 -95 123 -26 30 -55 69 -65 85 -10 17 -39 55 -64 85
-26 30 -62 77 -81 103 -19 26 -62 81 -95 122 -33 40 -69 88 -80 106 -11 18
-35 42 -54 53 -44 25 -161 32 -216 12z m220 -322 c160 -208 716 -928 757 -980
18 -23 87 -112 153 -199 66 -86 180 -234 253 -328 73 -95 148 -192 167 -217
19 -25 87 -112 151 -195 161 -207 224 -292 224 -299 0 -3 -203 -6 -450 -6
l-450 0 5 -2892 c4 -1609 10 -2937 15 -2993 37 -403 249 -698 595 -827 250
-93 587 -97 855 -11 125 40 232 105 333 202 130 124 211 269 255 451 6 25 17
68 24 95 9 38 13 532 17 2130 6 1995 7 2082 25 2130 52 142 129 256 224 331
31 25 93 63 137 84 130 64 180 70 555 70 375 0 425 -6 555 -70 185 -90 301
-229 368 -440 8 -25 13 -1126 17 -3985 l5 -3950 453 -3 c248 -1 452 -5 452 -8
0 -4 -15 -23 -32 -44 -18 -20 -87 -108 -153 -195 -66 -87 -133 -174 -150 -195
-16 -21 -47 -60 -68 -86 -20 -27 -165 -215 -322 -419 -282 -366 -505 -654
-763 -988 -73 -95 -148 -192 -167 -217 -147 -190 -178 -230 -184 -230 -4 0
-54 61 -111 136 -58 75 -168 218 -245 318 -77 99 -179 231 -225 291 -144 187
-498 648 -535 695 -79 101 -571 739 -614 795 -25 33 -58 75 -73 93 -16 18 -28
37 -28 42 0 6 168 11 438 12 l437 3 2 755 c2 415 -1 760 -5 766 -5 8 -22 9
-57 3 -283 -48 -536 -69 -840 -69 -490 0 -1066 58 -1375 137 -237 60 -431 141
-605 251 -426 271 -808 756 -921 1171 -9 31 -19 70 -24 86 -17 61 -68 272 -78
325 -66 339 -62 105 -62 3327 l0 2923 -455 0 c-250 0 -455 3 -455 6 0 3 9 13
20 22 10 10 116 143 235 297 118 154 231 300 250 325 19 25 103 133 185 240
83 107 204 265 270 350 66 85 201 261 301 390 558 725 578 750 587 750 4 0 62
-70 127 -156z"/>
<path d="M49713 16506 c-36 -14 -84 -51 -154 -116 -55 -52 -105 -96 -110 -98
-5 -2 -9 -10 -9 -18 0 -8 -5 -14 -10 -14 -24 0 -159 -113 -335 -280 -44 -42
-123 -116 -175 -165 -52 -50 -113 -108 -136 -130 -22 -22 -53 -47 -69 -55 -39
-20 -441 -387 -610 -556 -23 -23 -51 -47 -62 -53 -33 -17 -164 -130 -311 -269
-28 -26 -96 -90 -152 -142 -56 -52 -133 -125 -171 -162 -38 -38 -74 -68 -79
-68 -6 0 -10 -7 -10 -15 0 -8 -16 -22 -36 -31 -19 -9 -65 -44 -102 -78 -37
-33 -80 -72 -96 -86 -16 -14 -70 -63 -120 -110 -50 -47 -118 -110 -151 -141
-132 -123 -145 -136 -145 -147 0 -7 -5 -12 -12 -12 -6 0 -32 -21 -58 -47 -25
-27 -59 -55 -75 -63 -33 -18 -165 -131 -285 -245 -47 -45 -114 -108 -149 -141
-35 -32 -91 -85 -123 -116 -33 -32 -65 -58 -72 -58 -6 0 -27 -15 -46 -33 -19
-19 -60 -55 -90 -82 -113 -98 -196 -180 -227 -224 l-33 -45 0 -348 c0 -230 -4
-365 -11 -395 l-12 -45 -43 5 c-24 2 -68 16 -96 30 -83 40 -156 66 -253 93
-282 78 -433 102 -645 103 -119 1 -175 -5 -300 -29 -30 -5 -84 -15 -120 -21
-36 -6 -76 -17 -90 -24 -14 -7 -52 -23 -84 -34 -33 -11 -66 -27 -75 -35 -9 -7
-30 -17 -48 -21 -17 -3 -50 -20 -72 -36 -23 -16 -45 -29 -49 -29 -5 0 -27 -16
-49 -35 -23 -19 -46 -35 -52 -35 -6 0 -11 -7 -11 -15 0 -8 -4 -15 -9 -15 -12
0 -61 -47 -61 -60 0 -5 -4 -10 -9 -10 -9 0 -61 -46 -61 -55 0 -9 -36 -41 -53
-48 -9 -3 -17 -13 -17 -22 0 -8 -4 -15 -9 -15 -14 0 -61 -45 -61 -59 0 -6 -4
-11 -9 -11 -8 0 -45 -49 -103 -139 -10 -14 -18 -38 -18 -52 0 -14 -10 -34 -24
-47 -14 -11 -30 -40 -37 -64 -6 -24 -19 -59 -29 -78 -10 -19 -23 -60 -30 -90
-7 -30 -22 -82 -33 -115 -20 -55 -22 -80 -22 -325 1 -283 -3 -257 57 -458 5
-18 18 -38 29 -45 13 -8 19 -23 19 -47 0 -37 33 -135 54 -160 7 -8 16 -23 19
-32 4 -10 11 -18 17 -18 5 0 10 -9 10 -20 0 -11 7 -20 15 -20 10 0 15 -10 15
-31 0 -22 11 -42 40 -71 22 -23 40 -45 40 -50 0 -5 14 -22 30 -38 17 -16 30
-34 30 -40 0 -5 5 -10 10 -10 6 0 32 -22 59 -50 27 -27 54 -50 60 -50 6 0 11
-4 11 -10 0 -5 45 -55 100 -110 55 -56 100 -106 100 -111 0 -5 4 -9 10 -9 5 0
24 -16 43 -35 19 -19 37 -35 40 -35 3 0 36 -22 72 -50 36 -27 75 -50 85 -50
11 0 24 -9 30 -20 6 -11 16 -20 23 -20 7 0 29 -16 49 -35 19 -19 48 -37 64
-38 41 -6 84 -28 84 -43 0 -8 11 -16 25 -20 14 -3 25 -10 25 -15 0 -5 9 -9 19
-9 30 0 51 -11 51 -26 0 -8 6 -14 13 -14 7 0 36 -18 66 -40 29 -22 62 -40 73
-40 19 0 80 -36 86 -52 2 -4 20 -10 40 -14 20 -3 54 -19 74 -35 21 -16 52 -32
70 -35 18 -4 49 -18 68 -33 19 -15 54 -32 77 -39 23 -7 55 -24 71 -37 17 -14
40 -25 53 -25 13 0 44 -16 68 -35 27 -22 55 -35 72 -35 16 0 29 -4 29 -10 0
-5 5 -10 11 -10 6 0 24 -11 41 -25 16 -14 38 -25 49 -25 25 0 55 -15 93 -47
22 -18 37 -23 58 -19 15 3 28 1 28 -4 0 -5 9 -12 20 -15 11 -3 20 -13 20 -20
0 -19 12 -25 60 -29 31 -3 49 -11 70 -35 16 -17 35 -31 42 -32 7 0 25 -2 41
-3 16 -1 39 -15 56 -34 29 -31 42 -36 87 -33 13 1 30 -9 44 -26 29 -37 59 -53
91 -46 21 4 31 -1 48 -25 17 -24 32 -32 68 -38 31 -4 55 -15 70 -32 32 -35 69
-52 81 -40 8 8 21 1 43 -21 37 -37 95 -71 121 -71 10 0 18 -7 18 -14 0 -8 12
-21 27 -28 14 -7 31 -22 37 -33 6 -11 16 -24 23 -28 7 -4 19 -29 27 -56 8 -27
20 -57 27 -68 7 -11 9 -28 6 -37 -6 -15 -97 -16 -1085 -16 -1058 0 -1080 0
-1123 -20 -55 -25 -75 -40 -105 -81 -30 -41 -32 -129 -3 -129 9 0 62 -47 125
-110 20 -19 45 -33 70 -37 49 -7 74 -20 74 -37 0 -15 57 -39 71 -30 12 7 69
-27 69 -42 0 -15 23 -24 65 -24 25 0 40 -8 58 -30 29 -34 66 -51 95 -43 14 3
27 -5 47 -31 20 -27 35 -36 57 -36 29 0 68 -20 100 -52 10 -10 33 -18 53 -18
19 0 35 -4 35 -8 0 -12 96 -52 123 -52 39 0 96 -20 109 -39 16 -22 51 -41 76
-41 11 0 40 -11 65 -25 25 -14 78 -32 118 -40 57 -10 78 -19 94 -39 13 -16 31
-26 46 -26 15 0 53 -13 85 -30 32 -16 79 -32 104 -36 25 -3 73 -19 106 -35 34
-16 83 -32 110 -36 27 -3 62 -14 79 -24 16 -10 80 -26 140 -35 61 -10 117 -23
125 -29 31 -24 87 -44 130 -46 25 -2 56 -11 70 -21 24 -18 81 -31 200 -47 30
-4 68 -15 84 -26 19 -12 57 -21 115 -26 162 -14 206 -22 233 -42 15 -11 49
-24 75 -28 27 -4 71 -10 98 -14 28 -4 68 -16 91 -26 28 -13 82 -22 170 -29
181 -15 217 -20 235 -37 20 -17 45 -21 234 -34 196 -13 245 -19 245 -30 0 -28
92 -31 1070 -36 1087 -5 1477 3 1507 28 22 19 140 36 303 44 122 6 190 18 190
35 0 9 49 16 226 29 121 9 155 16 194 40 8 5 62 16 120 25 66 10 114 22 130
34 26 20 64 27 224 41 71 7 106 14 125 28 15 11 44 20 69 21 24 1 47 4 51 6 4
3 36 10 71 15 34 6 71 18 80 26 10 9 42 19 72 22 29 3 78 18 108 33 34 17 93
34 155 44 55 10 116 25 135 35 19 10 56 21 83 25 50 8 132 40 142 56 3 6 21
10 40 10 38 0 141 35 166 56 8 8 29 14 45 14 20 0 40 10 58 29 22 22 40 30 84
36 32 4 82 19 112 34 30 15 70 30 88 34 18 4 47 20 63 36 22 23 42 31 86 37
57 7 137 36 148 54 3 6 20 10 37 10 20 0 43 12 71 35 28 25 50 35 73 35 23 0
41 8 59 27 14 15 25 31 25 35 0 4 18 6 40 5 34 -1 45 4 74 36 28 30 40 37 72
37 32 0 44 6 65 32 21 25 35 32 69 34 33 2 48 9 68 32 20 22 39 32 69 35 32 4
51 14 80 43 63 64 111 104 122 104 18 0 13 102 -7 131 -21 31 -59 69 -69 69
-5 0 -21 8 -38 18 -28 16 -104 17 -1120 19 -1192 3 -1123 -1 -1077 58 11 14
23 44 27 66 4 22 13 43 21 46 8 3 14 11 14 18 0 8 16 31 36 51 19 21 38 51 41
66 6 31 75 108 96 108 8 0 28 7 43 15 16 8 36 15 44 15 8 0 42 14 75 30 33 16
70 30 82 30 12 0 36 13 53 30 17 16 36 31 43 31 7 1 17 2 22 4 6 1 18 3 27 3
10 1 33 18 53 38 21 21 42 33 51 30 20 -8 65 11 81 33 7 11 35 24 62 31 32 7
59 23 82 46 18 19 41 34 51 34 10 0 18 6 18 13 1 6 24 23 52 36 28 13 66 39
85 57 19 19 38 34 42 34 5 0 32 22 61 50 29 27 57 50 61 50 5 0 9 4 9 9 0 13
74 86 94 94 9 4 16 13 16 22 0 8 5 15 10 15 10 0 50 36 50 45 0 3 20 26 45 50
24 25 62 68 83 97 22 29 49 62 61 72 12 11 21 31 21 48 0 18 5 28 15 28 8 0
15 7 15 15 0 9 7 18 15 21 8 4 15 12 15 18 0 7 16 29 35 50 33 37 39 51 36 86
-1 9 17 33 39 55 23 22 40 48 40 61 0 13 14 38 30 56 17 18 30 37 30 43 0 6
13 26 30 45 16 18 33 49 36 69 4 20 20 52 35 71 16 19 32 51 35 70 4 19 18 48
30 63 13 15 29 47 35 70 6 23 16 49 23 57 24 29 57 128 51 151 -4 18 3 32 30
58 27 26 35 42 35 68 0 25 9 43 35 70 28 29 35 44 35 75 0 25 5 41 15 44 23 9
55 68 55 102 0 20 7 35 19 41 20 11 51 78 51 111 0 11 8 24 19 29 19 11 51 78
51 108 0 8 11 26 24 38 14 13 30 42 36 66 7 24 25 59 41 78 17 21 29 47 29 64
0 18 12 40 34 63 19 20 38 49 41 65 4 16 20 44 36 62 16 17 29 35 29 40 0 5
16 27 35 50 22 26 35 51 35 69 0 20 10 38 35 59 27 24 35 39 35 65 0 19 4 34
10 34 15 0 60 42 60 57 0 7 5 13 11 13 6 0 34 26 62 57 179 197 372 392 516
522 40 36 97 88 125 116 28 27 63 54 79 60 35 13 156 106 156 121 1 6 10 23
21 37 50 63 7 176 -88 230 -29 17 -82 18 -837 18 -700 -1 -809 -3 -835 -16
-16 -8 -36 -15 -44 -15 -8 0 -58 -29 -111 -65 -53 -35 -105 -67 -116 -70 -10
-4 -32 -17 -48 -31 -48 -40 -124 -93 -156 -108 -16 -7 -68 -46 -115 -85 -47
-39 -110 -88 -140 -108 -48 -32 -146 -108 -160 -124 -3 -3 -41 -37 -85 -76
-44 -39 -99 -89 -123 -112 -24 -22 -47 -41 -52 -41 -6 0 -10 -4 -10 -9 0 -10
-79 -51 -98 -51 -32 0 -36 55 -38 493 l-3 438 -30 38 c-17 21 -74 78 -127 127
-53 49 -122 112 -153 141 -31 28 -73 60 -93 70 -21 10 -41 26 -44 36 -3 9 -9
17 -14 17 -4 0 -39 30 -78 68 -126 122 -226 216 -292 274 -36 32 -85 76 -110
98 -25 22 -62 48 -82 58 -21 9 -38 22 -38 27 0 13 -45 55 -59 55 -6 0 -11 7
-11 15 0 8 -3 15 -8 15 -11 0 -115 102 -137 135 -20 29 -20 51 -25 1271 l-5
1241 -29 37 c-16 22 -50 48 -80 62 l-51 24 -677 0 -677 0 -56 -26 c-31 -15
-61 -36 -67 -48 -6 -11 -17 -27 -25 -34 -10 -11 -13 -96 -13 -438 0 -361 -2
-429 -15 -454 -19 -37 -41 -38 -85 -5 -19 14 -40 25 -47 25 -7 0 -13 5 -13 10
0 6 -9 10 -20 10 -11 0 -20 6 -20 13 0 14 -43 57 -58 57 -6 0 -12 6 -14 13 -2
7 -77 82 -168 167 -91 85 -177 166 -191 180 -78 75 -216 198 -248 220 -20 14
-37 28 -39 33 -2 4 -10 7 -18 7 -8 0 -14 7 -14 15 0 8 -4 15 -9 15 -6 0 -53
41 -106 92 -108 103 -115 109 -170 130 -38 15 -43 15 -92 -6z m2620 -368 c16
-12 17 -38 15 -283 l-3 -270 -191 -5 c-145 -4 -196 -8 -210 -19 -104 -80 -136
-158 -98 -234 9 -18 28 -45 43 -60 52 -57 71 -62 271 -67 l185 -5 5 -440 c3
-242 3 -446 1 -453 -3 -10 -13 -12 -35 -8 -21 4 -61 36 -126 100 -52 51 -111
105 -130 120 -19 16 -69 60 -110 100 -84 79 -140 130 -250 226 -74 64 -199
180 -273 252 l-37 37 0 495 c1 432 3 497 16 511 13 13 74 15 463 15 342 0 451
-3 464 -12z m-2541 -69 c12 -6 96 -83 187 -171 91 -88 182 -172 201 -186 19
-15 88 -77 153 -139 65 -63 122 -111 126 -108 5 2 60 -45 122 -105 63 -60 118
-110 122 -110 5 0 69 -60 143 -132 75 -73 143 -137 152 -142 9 -5 54 -43 99
-85 46 -42 127 -116 180 -164 54 -48 157 -143 229 -210 72 -67 177 -162 234
-212 57 -49 133 -118 170 -152 37 -35 70 -63 74 -63 4 0 39 -30 77 -67 38 -38
75 -70 82 -72 6 -2 41 -33 78 -68 36 -35 76 -71 89 -80 12 -9 55 -47 94 -84
39 -38 74 -69 78 -69 4 0 77 -68 163 -152 86 -83 168 -159 183 -169 15 -9 49
-40 77 -68 27 -28 53 -51 57 -51 4 0 18 -10 31 -22 246 -238 328 -322 323
-334 -5 -12 -501 -14 -3551 -14 -3146 0 -3546 2 -3551 15 -7 16 168 203 220
235 15 10 78 67 140 128 61 60 116 111 123 113 6 2 42 34 80 70 37 36 75 70
85 75 9 5 87 79 175 164 87 85 173 163 192 172 19 10 93 75 165 145 72 71 138
133 147 138 43 26 135 108 245 216 67 65 126 119 131 119 5 0 35 28 68 61 33
34 73 69 88 79 16 10 70 59 121 109 51 50 97 91 102 91 4 0 61 51 125 113 64
61 149 139 188 172 115 97 247 214 345 306 50 47 102 93 115 102 13 9 72 63
131 121 59 59 111 106 116 106 6 0 28 19 49 41 22 23 52 49 67 58 14 9 88 75
163 146 117 110 152 140 173 144 2 1 13 -4 24 -10z m3876 -4206 l2 -592 54
-56 54 -55 69 0 c84 0 96 7 228 131 55 52 118 108 140 124 22 16 85 70 140
120 55 49 117 103 137 118 21 15 80 63 131 105 51 42 135 111 187 152 51 41
112 91 134 111 23 20 52 42 66 49 14 7 48 30 75 52 49 39 83 60 239 153 l80
48 464 -1 c255 -1 467 -3 470 -6 12 -13 -23 -54 -200 -235 -103 -105 -196
-204 -205 -219 -10 -15 -48 -66 -86 -115 -68 -88 -267 -380 -267 -392 0 -3
-13 -25 -29 -48 -29 -43 -51 -79 -102 -175 -16 -28 -39 -69 -52 -90 -22 -35
-160 -312 -222 -447 -15 -33 -47 -100 -70 -150 -77 -162 -105 -226 -105 -239
0 -8 -7 -19 -15 -26 -8 -7 -15 -18 -15 -24 0 -6 -9 -28 -20 -49 -11 -20 -20
-42 -20 -48 0 -10 -32 -80 -50 -109 -17 -28 -120 -245 -120 -254 0 -4 -9 -21
-20 -36 -11 -16 -34 -57 -52 -92 -17 -35 -48 -89 -69 -120 -22 -31 -39 -60
-39 -63 0 -8 -35 -60 -144 -215 -61 -86 -130 -164 -274 -307 -106 -106 -199
-193 -206 -193 -7 0 -25 -14 -41 -30 -16 -16 -34 -30 -40 -30 -7 0 -20 -9 -30
-20 -10 -11 -22 -20 -27 -20 -5 0 -28 -13 -51 -29 -23 -15 -76 -46 -117 -68
-41 -22 -84 -45 -95 -51 -31 -18 -172 -82 -180 -82 -4 0 -21 -6 -38 -14 -61
-28 -113 -48 -222 -84 -90 -30 -117 -44 -150 -77 -22 -22 -47 -56 -55 -75 -7
-19 -26 -54 -42 -77 -15 -23 -28 -44 -28 -48 0 -3 -9 -18 -19 -33 -10 -15 -46
-70 -80 -122 -33 -52 -69 -107 -81 -122 -11 -14 -20 -30 -20 -35 0 -4 -31 -41
-68 -81 l-68 -73 -655 3 c-606 3 -654 4 -657 20 -2 11 11 26 35 41 21 14 47
33 58 44 11 10 36 29 55 43 54 37 386 367 438 435 25 33 49 62 54 63 4 2 8 9
8 15 0 6 13 25 29 42 28 30 151 207 151 218 0 3 22 41 48 84 26 43 51 85 55
93 4 8 25 48 47 89 22 41 40 79 40 85 0 6 16 42 35 80 20 38 54 117 76 175 23
58 47 117 54 131 7 14 16 43 20 65 4 22 10 45 15 50 4 6 18 44 30 85 12 41 27
86 34 100 7 14 16 47 20 74 3 27 11 54 16 61 10 13 22 63 41 175 6 36 17 77
25 92 8 15 14 49 14 75 1 26 8 66 16 88 8 22 19 72 24 110 5 39 14 97 20 130
17 86 30 202 40 345 5 69 13 186 19 260 5 74 10 222 10 328 1 219 -4 241 -69
292 l-38 30 -2846 0 -2847 0 -49 -46 c-31 -29 -54 -61 -61 -85 -19 -62 13
-805 41 -944 6 -33 16 -96 21 -140 12 -107 24 -178 43 -251 9 -34 16 -78 16
-97 0 -19 9 -63 20 -97 11 -34 20 -78 20 -97 0 -19 4 -42 9 -52 5 -9 22 -64
36 -122 15 -57 31 -108 35 -114 4 -5 11 -26 15 -45 10 -53 93 -292 129 -372 9
-21 16 -44 16 -52 0 -8 4 -17 9 -20 4 -3 16 -27 26 -53 17 -46 163 -347 188
-388 6 -11 24 -38 38 -60 14 -22 28 -47 32 -55 6 -16 68 -107 182 -267 104
-147 536 -573 581 -573 3 0 11 -6 19 -12 7 -7 23 -21 35 -31 50 -42 45 -42
-648 -42 l-661 0 -36 40 c-19 22 -63 80 -96 129 -33 49 -73 105 -90 125 -16
20 -29 39 -29 43 0 3 -17 33 -39 65 -46 70 -110 129 -160 150 -20 8 -54 23
-76 32 -22 10 -57 26 -77 35 -20 9 -40 21 -43 26 -3 6 -14 10 -23 10 -10 0
-33 9 -52 20 -19 11 -71 38 -115 60 -44 23 -87 45 -95 50 -23 14 -73 39 -91
46 -9 3 -36 16 -60 29 -24 13 -73 37 -109 55 -36 17 -74 36 -85 43 -11 6 -60
32 -110 58 -49 26 -115 61 -145 78 -30 16 -95 51 -145 76 -49 25 -108 56 -130
70 -36 21 -167 91 -345 182 -36 19 -72 38 -80 43 -8 6 -26 14 -40 20 -14 5
-32 14 -40 19 -8 5 -53 27 -100 50 -161 80 -291 151 -365 201 -41 27 -77 50
-81 50 -4 0 -32 19 -63 42 -31 24 -90 65 -131 92 -138 90 -448 414 -526 551
-58 100 -91 170 -106 225 -54 186 -58 209 -58 395 0 216 15 314 65 430 8 17
17 44 21 60 4 17 14 41 23 55 35 54 42 66 53 90 24 49 98 138 188 226 50 49
96 91 103 93 7 2 30 16 52 31 57 37 166 89 206 97 19 3 43 12 54 18 11 7 54
21 95 31 62 15 116 18 305 18 212 -1 240 -3 360 -28 145 -31 249 -60 312 -87
24 -11 49 -19 57 -19 8 0 17 -4 20 -9 3 -5 18 -12 33 -16 47 -11 231 -98 325
-152 50 -29 65 -33 130 -33 81 0 113 15 160 76 l23 28 3 456 c2 412 4 456 19
468 13 9 804 12 3902 10 l3886 -3 3 -592z m-4110 -711 c10 -7 12 -161 10 -738
l-3 -729 -1086 -3 c-1233 -2 -1107 -12 -1127 88 -6 30 -21 98 -32 150 -12 52
-25 115 -29 140 -5 25 -20 106 -34 180 -14 74 -31 182 -37 240 -6 58 -15 134
-20 170 -5 36 -12 161 -15 278 l-6 212 23 9 c29 12 2338 14 2356 3z m2775 -10
c14 -16 14 -39 1 -262 -22 -361 -30 -457 -47 -540 -8 -41 -25 -129 -37 -195
-25 -139 -89 -422 -102 -448 -8 -16 -68 -17 -1101 -15 l-1092 3 -3 719 c-1
503 1 723 9 732 6 7 23 15 37 17 15 2 543 5 1173 6 1083 1 1147 0 1162 -17z
m-2765 -2733 c2 -838 1 -887 -15 -891 -35 -8 -290 24 -360 46 -26 8 -66 19
-88 24 -40 10 -173 55 -210 72 -227 102 -372 190 -536 328 -112 94 -305 294
-360 372 -21 30 -63 90 -94 133 -50 71 -67 98 -129 200 -37 62 -177 343 -197
397 -11 30 -24 59 -28 65 -15 19 -42 117 -37 131 5 12 165 14 1028 12 l1023
-3 3 -886z m2442 869 c0 -46 -25 -108 -140 -349 -27 -59 -50 -110 -50 -113 0
-3 -15 -29 -34 -58 -18 -29 -43 -74 -55 -100 -11 -26 -25 -49 -30 -52 -5 -4
-35 -45 -67 -94 -94 -143 -202 -268 -375 -435 -173 -168 -278 -246 -449 -333
-19 -10 -46 -25 -60 -34 -14 -9 -47 -24 -75 -34 -27 -9 -84 -28 -125 -42 -41
-14 -80 -29 -86 -35 -6 -5 -33 -12 -60 -15 -27 -4 -61 -13 -77 -21 -25 -13
-76 -21 -267 -42 -123 -14 -110 -119 -110 879 0 477 3 875 6 884 6 14 106 16
1030 16 l1024 0 0 -22z m2265 -2168 c8 -13 -13 -40 -31 -40 -8 0 -42 -13 -76
-29 -35 -15 -108 -45 -163 -66 -55 -21 -118 -46 -140 -56 -23 -10 -53 -21 -68
-24 -15 -4 -30 -11 -33 -16 -3 -5 -12 -9 -20 -9 -8 0 -34 -9 -56 -20 -23 -11
-49 -20 -58 -20 -9 0 -20 -4 -26 -8 -5 -5 -49 -21 -99 -36 -49 -15 -104 -33
-120 -40 -17 -8 -46 -17 -65 -21 -19 -4 -40 -11 -46 -16 -6 -5 -49 -18 -95
-30 -46 -11 -96 -26 -110 -34 -14 -8 -46 -17 -70 -21 -24 -4 -52 -11 -63 -16
-10 -6 -87 -27 -170 -48 -83 -21 -172 -46 -197 -54 -26 -9 -73 -20 -105 -25
-76 -12 -181 -36 -217 -50 -16 -6 -42 -11 -58 -11 -16 0 -45 -7 -64 -14 -19
-8 -69 -20 -112 -26 -42 -5 -81 -14 -87 -19 -6 -5 -42 -12 -81 -16 -73 -6 -98
-11 -257 -44 -53 -12 -116 -21 -140 -21 -24 0 -76 -7 -117 -15 -71 -15 -139
-24 -351 -45 -52 -5 -131 -14 -175 -20 -44 -5 -163 -15 -265 -22 -236 -17
-1318 -17 -1550 -1 -193 13 -461 40 -541 53 -30 6 -73 10 -95 10 -21 0 -82 9
-134 20 -52 11 -117 20 -143 20 -27 0 -92 9 -145 21 -160 33 -184 38 -252 45
-36 3 -76 12 -90 19 -14 7 -54 15 -90 18 -36 3 -79 13 -95 21 -17 9 -45 16
-63 16 -18 0 -67 9 -110 21 -94 26 -114 30 -272 64 -69 15 -138 33 -155 40
-16 7 -55 18 -85 25 -30 7 -75 19 -100 27 -25 8 -63 19 -85 24 -22 5 -53 16
-70 23 -16 8 -51 17 -77 20 -26 4 -50 11 -53 17 -4 5 -17 9 -30 9 -13 0 -26 4
-29 9 -3 5 -30 15 -58 22 -29 6 -62 18 -73 24 -11 7 -38 16 -60 20 -22 4 -44
10 -50 15 -5 4 -48 20 -95 34 -46 15 -89 31 -95 35 -5 5 -25 12 -43 16 -18 4
-45 13 -60 21 -15 8 -31 14 -35 14 -5 0 -37 13 -73 30 -35 16 -81 34 -103 40
-22 6 -43 15 -46 20 -3 6 -13 10 -22 10 -9 0 -35 8 -57 19 -44 19 -110 46
-138 55 -10 3 -18 15 -18 26 l0 20 4509 0 c3122 0 4512 -3 4516 -10z"/>
<path d="M49386 15350 c-22 -11 -42 -24 -45 -28 -4 -4 -26 -25 -51 -46 -25
-21 -98 -89 -164 -150 -65 -61 -128 -117 -140 -125 -11 -8 -33 -27 -47 -41
-14 -15 -37 -34 -49 -43 -13 -9 -57 -49 -100 -89 -42 -40 -105 -98 -140 -128
-36 -30 -76 -66 -90 -80 -14 -14 -63 -59 -110 -100 -47 -41 -92 -81 -100 -90
-8 -8 -58 -53 -110 -100 -227 -204 -270 -254 -270 -317 0 -39 36 -98 91 -147
44 -40 57 -46 95 -46 63 0 104 27 232 153 62 61 120 116 130 121 9 5 63 52
119 105 209 195 260 241 269 241 5 0 41 32 79 70 38 39 73 70 78 70 4 0 44 35
88 78 44 42 91 84 104 92 14 8 108 98 210 200 178 180 185 188 185 227 0 51
-19 88 -67 134 -63 60 -128 73 -197 39z"/>
<path d="M47683 13822 c-17 -9 -84 -67 -150 -129 -65 -61 -134 -124 -153 -139
-19 -16 -65 -59 -102 -96 l-68 -67 0 -78 0 -79 48 -47 c26 -26 55 -47 64 -47
9 0 20 -4 23 -10 3 -5 19 -10 35 -10 16 0 32 5 35 10 3 6 18 10 31 10 25 0 45
18 402 358 l82 78 0 73 c0 83 -15 113 -83 162 -47 34 -113 39 -164 11z"/>
<path d="M44300 11141 c-127 -11 -172 -33 -277 -138 -51 -50 -93 -97 -93 -105
0 -7 -10 -31 -22 -53 -20 -37 -22 -54 -22 -215 0 -142 3 -181 16 -205 9 -16
22 -46 28 -65 29 -83 74 -162 123 -217 116 -130 294 -293 320 -293 6 0 24 -12
39 -27 26 -25 80 -58 178 -111 19 -10 53 -29 75 -42 60 -34 142 -79 220 -120
126 -67 229 -123 260 -142 17 -10 71 -38 120 -63 50 -25 108 -56 130 -70 22
-14 51 -29 65 -35 14 -5 32 -14 40 -20 53 -34 383 -191 418 -199 73 -16 120
-3 167 44 28 27 45 54 49 78 9 51 -2 150 -25 220 -10 31 -19 65 -19 74 0 9 -4
30 -10 47 -16 52 -58 233 -91 396 -31 157 -41 226 -59 425 -11 114 -20 151
-52 197 -18 26 -203 164 -265 198 -24 13 -188 112 -233 140 -16 11 -142 73
-233 115 -31 15 -60 31 -63 36 -3 5 -13 9 -22 9 -10 0 -35 9 -57 20 -21 11
-54 23 -72 26 -18 3 -36 10 -39 15 -3 5 -15 9 -28 9 -12 0 -26 4 -32 10 -5 5
-37 15 -69 21 -33 6 -65 15 -70 19 -23 19 -266 31 -395 21z m335 -384 c17 -9
40 -17 52 -17 12 0 53 -12 90 -26 37 -14 86 -30 108 -35 22 -6 47 -16 55 -23
8 -8 26 -17 40 -21 48 -14 295 -150 397 -217 40 -27 74 -48 77 -48 9 0 95 -61
103 -73 4 -7 11 -59 15 -117 7 -110 20 -198 38 -265 6 -22 15 -71 20 -110 5
-38 15 -103 23 -143 15 -83 8 -99 -36 -83 -30 12 -194 93 -262 130 -27 15 -84
46 -125 68 -41 22 -93 51 -115 65 -22 14 -62 35 -90 47 -27 12 -56 28 -65 35
-8 8 -26 17 -39 21 -13 4 -44 20 -69 36 -25 16 -51 29 -58 29 -7 0 -46 23 -87
50 -41 28 -79 50 -84 50 -6 0 -18 9 -28 20 -10 11 -22 20 -27 20 -31 0 -225
182 -250 235 -11 22 -30 60 -44 85 -21 39 -24 59 -24 147 0 105 11 149 39 157
9 2 84 4 166 2 119 -2 156 -5 180 -19z"/>
<path d="M47573 10841 c-22 -16 -50 -45 -62 -65 -21 -33 -22 -45 -18 -144 7
-140 22 -263 41 -337 9 -32 16 -78 16 -102 0 -71 35 -147 88 -193 45 -38 50
-40 115 -40 l68 0 56 55 55 56 -6 92 c-3 51 -10 126 -16 167 -7 41 -13 95 -13
120 l-2 45 246 3 246 2 42 36 c105 90 108 199 7 292 l-46 42 -388 0 -389 0
-40 -29z"/>
<path d="M48216 8975 c-22 -8 -58 -32 -80 -54 -39 -39 -41 -44 -44 -116 -4
-64 -1 -79 19 -112 113 -187 469 -534 674 -660 76 -46 155 -67 170 -43 3 6 14
10 24 10 25 0 88 64 106 107 40 94 -9 196 -122 253 -128 66 -345 272 -488 464
-75 102 -94 121 -139 142 -59 27 -67 28 -120 9z"/>
<path d="M4755 13840 c-232 -24 -514 -85 -715 -155 -237 -83 -540 -255 -760
-431 -120 -96 -322 -300 -420 -424 -400 -504 -609 -1076 -650 -1780 -15 -271
-13 -4463 2 -4531 16 -69 66 -121 131 -137 25 -7 118 -12 206 -12 l161 0 0
-95 0 -95 1035 0 1035 0 0 905 0 905 345 0 345 0 0 930 0 930 -75 0 -75 0 0
183 c0 205 -10 260 -57 309 -45 47 -104 58 -306 58 l-179 0 5 253 c6 284 17
357 72 475 42 89 119 173 189 206 44 21 136 46 167 46 6 0 23 -28 39 -63 16
-35 43 -78 61 -95 63 -62 163 -66 239 -11 23 17 48 28 56 25 21 -8 73 -85 115
-170 21 -43 40 -81 43 -83 2 -2 219 153 482 346 264 193 482 351 487 351 4 0
7 -1158 7 -2572 0 -1751 3 -2585 11 -2610 14 -51 69 -103 124 -117 24 -6 118
-11 209 -11 l166 0 0 -95 0 -95 1030 0 1030 0 0 3475 0 3475 -75 0 -75 0 0
193 c0 105 -5 209 -11 229 -14 51 -69 103 -124 117 -62 16 -2088 16 -2150 0
-55 -14 -110 -66 -124 -117 -6 -20 -11 -97 -11 -169 0 -73 -2 -133 -5 -133 -3
0 -33 22 -68 49 -179 141 -480 309 -677 380 -173 62 -402 118 -592 147 -123
18 -515 27 -643 14z m655 -195 c542 -81 990 -310 1428 -729 l82 -79 0 332 0
331 1030 0 1030 0 0 -3475 0 -3475 -1030 0 -1030 0 0 2936 c0 2574 -2 2935
-15 2931 -8 -4 -340 -245 -739 -537 -398 -291 -726 -530 -729 -530 -3 0 -26
43 -51 95 -85 174 -207 270 -378 296 -210 33 -396 -58 -478 -234 -70 -149 -80
-252 -80 -824 l0 -463 345 0 345 0 0 -930 0 -930 -345 0 -345 0 0 -905 0 -905
-1035 0 -1036 0 4 2293 c4 2511 0 2349 62 2675 68 352 202 686 393 977 365
557 900 947 1504 1095 132 32 273 57 398 70 137 14 538 5 670 -15z"/>
<path d="M26380 13839 c-384 -38 -828 -170 -1150 -342 -179 -95 -391 -237
-515 -345 -96 -83 -253 -245 -328 -337 -373 -462 -531 -935 -567 -1700 -15
-327 -13 -4529 2 -4596 16 -69 66 -121 131 -137 25 -7 118 -12 206 -12 l161 0
0 -95 0 -95 1035 0 1035 0 0 1295 0 1295 170 0 170 0 0 -96 0 -97 323 6 c203
3 372 11 457 22 561 68 978 243 1289 541 360 344 561 744 642 1275 30 191 32
580 5 764 -36 250 -103 491 -185 669 -21 46 -53 131 -71 187 -175 563 -564
1061 -1094 1404 -304 195 -663 323 -1076 381 -128 18 -510 26 -640 13z m660
-194 c472 -73 870 -249 1210 -533 127 -106 319 -306 411 -428 275 -366 428
-775 470 -1259 13 -152 8 -443 -11 -585 -66 -514 -259 -924 -594 -1269 -226
-231 -458 -373 -786 -479 -308 -99 -541 -132 -1007 -139 l-343 -6 0 910 0 910
120 11 c361 36 527 203 507 512 -10 147 -53 240 -142 308 -93 71 -258 105
-411 84 -199 -27 -316 -135 -377 -349 l-22 -78 -3 -2352 -2 -2353 -1035 0
-1035 0 0 2208 c0 1364 4 2281 10 2401 35 666 167 1074 483 1491 414 546 1134
932 1882 1009 135 14 550 6 675 -14z m-200 -2402 c0 -181 -102 -267 -339 -288
l-84 -7 6 35 c10 60 63 160 113 210 54 56 120 92 202 111 105 26 102 27 102
-61z"/>
<path d="M9546 13668 c-61 -17 -110 -73 -125 -144 -10 -46 -11 -572 -9 -2404
4 -2590 1 -2448 68 -2780 104 -517 268 -862 579 -1219 167 -191 474 -411 729
-521 53 -23 138 -67 188 -96 298 -176 656 -281 1068 -314 71 -5 286 -10 477
-10 l349 0 0 425 0 426 88 -76 c119 -104 325 -240 457 -303 117 -56 179 -87
372 -188 252 -133 510 -208 903 -261 96 -13 278 -17 1098 -20 l982 -4 0 990 0
991 -75 0 -75 0 0 193 c0 105 -5 209 -11 229 -14 51 -69 103 -124 117 -30 8
-283 11 -813 11 -423 0 -784 3 -801 6 l-32 7 33 34 c41 43 89 68 170 90 56 15
149 17 831 20 l767 4 0 774 0 775 -74 0 -74 0 -4 213 c-3 182 -6 217 -20 239
-30 46 -69 76 -114 87 -28 7 -260 11 -681 12 -351 1 -648 4 -661 8 l-23 6 28
27 c37 35 115 74 194 95 57 15 144 17 812 20 l747 4 0 999 0 1000 -75 0 -75 0
0 193 c0 105 -5 209 -11 229 -14 51 -69 103 -124 117 -58 14 -1928 15 -2111 1
-252 -20 -575 -89 -779 -165 -411 -154 -757 -436 -984 -802 -125 -201 -204
-412 -266 -704 -60 -283 -58 -236 -62 -1806 l-4 -1443 -27 0 c-45 1 -175 27
-213 44 -22 9 -39 24 -43 38 -3 13 -6 985 -6 2161 l0 2137 -75 0 -75 0 0 186
c0 102 -5 205 -11 229 -14 57 -67 110 -124 124 -59 15 -2103 14 -2159 -1z
m2114 -2275 c0 -1390 4 -2147 11 -2223 36 -399 149 -534 487 -585 53 -8 143
-15 199 -15 l102 0 4 1543 c3 1388 5 1554 21 1662 57 402 174 708 373 972 300
399 744 638 1353 729 102 16 236 18 1178 21 l1062 4 0 -1000 0 -1000 -747 -3
c-730 -4 -750 -4 -825 -25 -141 -40 -210 -88 -255 -181 -23 -48 -27 -68 -27
-141 1 -199 80 -293 287 -338 60 -13 182 -17 750 -20 l677 -4 0 -775 0 -774
-702 0 c-399 0 -740 -4 -789 -10 -185 -21 -282 -75 -330 -182 -20 -46 -23 -68
-23 -168 1 -217 56 -286 262 -327 65 -13 207 -17 900 -20 l822 -4 0 -990 0
-990 -992 4 c-858 3 -1010 6 -1118 20 -610 83 -1028 270 -1355 608 -198 205
-329 430 -416 714 l-28 90 0 -718 -1 -719 -437 5 c-466 5 -537 11 -787 63
-334 71 -660 222 -906 421 -98 79 -260 247 -338 350 -252 332 -396 724 -463
1263 -9 70 -13 709 -16 2473 l-4 2377 1036 0 1035 0 0 -2107z"/>
<path d="M43170 12413 c-41 -14 -112 -70 -224 -173 -32 -30 -70 -64 -83 -75
-64 -52 -146 -141 -170 -183 -14 -26 -37 -58 -49 -72 -13 -14 -30 -43 -40 -65
-9 -22 -19 -42 -23 -45 -14 -9 -89 -129 -96 -152 -4 -13 -19 -43 -33 -68 -22
-40 -26 -59 -30 -171 -4 -122 -3 -127 19 -148 19 -17 35 -21 90 -21 76 0 68
-5 202 126 31 32 37 44 37 81 0 27 5 43 13 44 19 0 57 54 59 83 1 14 5 26 9
26 3 0 19 19 35 42 16 24 44 58 62 77 20 21 32 44 32 61 0 18 8 33 23 43 32
21 147 136 147 148 0 5 7 9 15 9 8 0 15 7 15 15 0 8 4 15 9 15 16 0 61 46 61
61 0 8 10 19 23 24 12 6 26 20 32 32 5 12 17 24 27 26 10 3 18 12 18 21 0 9 6
16 14 16 18 0 23 24 18 77 -8 83 -138 172 -212 146z"/>
<path d="M34113 12375 c-284 -77 -508 -399 -463 -666 13 -76 57 -175 125 -280
25 -39 243 -324 485 -634 242 -310 440 -567 440 -571 0 -4 -72 -80 -160 -170
-279 -287 -468 -514 -635 -764 -97 -145 -200 -341 -235 -448 -69 -210 -66
-389 7 -524 42 -76 157 -179 254 -227 265 -130 550 -115 703 36 69 68 93 107
195 309 118 235 238 443 366 634 110 164 213 301 231 307 5 2 224 -258 485
-578 280 -345 497 -601 530 -629 142 -118 253 -163 409 -164 178 -1 282 42
405 168 211 215 259 457 139 695 -42 83 -164 236 -970 1223 l-55 66 122 124
c518 523 801 933 896 1296 32 125 37 305 9 397 -45 150 -138 259 -289 334
-111 56 -216 81 -336 81 -154 0 -259 -39 -359 -134 -83 -78 -133 -156 -225
-347 -109 -227 -207 -401 -322 -574 -100 -151 -222 -308 -235 -303 -4 2 -206
257 -449 568 -243 311 -470 592 -506 626 -70 67 -176 125 -270 149 -73 19
-222 18 -292 0z"/>
<path d="M42384 10699 c-23 -10 -53 -36 -68 -58 l-28 -40 1 -222 c2 -209 3
-224 24 -260 12 -21 26 -39 30 -39 5 0 27 -16 50 -35 34 -29 48 -35 87 -35 45
0 52 4 107 50 7 5 19 10 28 10 8 0 15 7 15 15 0 8 8 30 17 50 14 30 15 39 4
57 -17 28 -30 120 -34 253 -4 116 -12 144 -63 204 -27 32 -92 72 -116 70 -7 0
-31 -9 -54 -20z"/>
<path d="M57321 7699 c-35 -10 -70 -31 -99 -57 -28 -26 -57 -44 -80 -48 -67
-12 -117 -53 -139 -114 l-20 -55 -49 3 c-66 3 -145 -14 -199 -44 -58 -33 -123
-107 -131 -150 -3 -19 -11 -37 -18 -41 -6 -4 -54 -8 -106 -8 -87 0 -99 -3
-145 -30 -71 -42 -120 -95 -140 -151 -27 -72 -28 -73 -81 -62 -63 14 -167 1
-198 -23 -13 -10 -29 -19 -34 -19 -18 0 -73 -52 -99 -93 -31 -48 -53 -120 -53
-170 0 -44 27 -135 46 -158 8 -8 14 -20 14 -26 0 -15 41 -48 77 -62 31 -13 31
-14 31 -75 0 -92 46 -160 125 -186 51 -16 109 -6 172 30 28 16 82 45 120 66
39 20 77 43 86 50 8 8 19 14 24 14 21 0 75 54 83 83 8 31 9 32 73 35 110 4
218 67 256 149 17 37 20 38 73 41 53 3 116 27 185 72 17 11 44 26 60 35 75 37
142 79 166 102 39 36 56 103 39 153 -12 35 -11 42 4 59 33 37 65 36 105 -3 20
-20 46 -36 56 -36 11 0 26 -4 34 -9 33 -21 147 39 181 96 11 19 20 50 20 69 0
33 -46 133 -125 269 -19 33 -38 69 -44 80 -12 27 -82 145 -101 172 -9 12 -38
30 -65 40 -47 18 -53 18 -104 2z m102 -101 c26 -35 139 -229 169 -290 10 -20
22 -40 28 -43 5 -3 10 -14 10 -24 0 -10 7 -24 15 -31 18 -15 29 -71 20 -99 -4
-12 -26 -31 -51 -42 -41 -20 -46 -20 -69 -5 -13 9 -35 34 -47 56 -27 47 -49
51 -102 15 -20 -14 -41 -25 -47 -25 -5 0 -22 -9 -37 -20 -15 -11 -42 -23 -59
-26 -28 -6 -37 -2 -62 25 -16 17 -32 46 -36 64 -5 31 -31 122 -62 219 -21 67
-14 98 26 125 37 25 77 29 102 10 17 -13 65 -140 71 -187 4 -33 46 -39 72 -11
17 18 16 21 -7 58 -13 21 -40 69 -60 106 -34 65 -35 70 -21 92 20 31 73 65
101 65 13 0 32 -13 46 -32z m-443 -275 c31 -16 71 -49 94 -76 38 -46 41 -53
44 -123 2 -40 -1 -87 -6 -104 -13 -35 -3 -39 46 -14 38 18 64 12 97 -24 39
-42 42 -79 9 -113 -15 -16 -32 -29 -37 -29 -5 0 -35 -15 -66 -34 -130 -78
-223 -126 -243 -126 -30 0 -71 37 -84 75 -16 46 -5 102 32 169 74 132 92 197
64 231 -19 23 -57 18 -76 -10 -17 -26 -14 -48 13 -113 3 -7 -14 -31 -38 -53
-42 -38 -72 -49 -84 -29 -3 6 -13 10 -21 10 -13 0 -13 -3 0 -22 9 -12 16 -30
16 -39 0 -9 6 -22 13 -28 18 -14 38 -105 39 -170 0 -67 -33 -125 -97 -170 -65
-46 -149 -55 -212 -23 -52 27 -142 125 -171 188 -13 27 -30 61 -38 76 -23 43
-19 168 8 219 32 61 126 119 193 118 28 0 63 -7 80 -17 58 -33 113 -77 118
-94 3 -10 10 -18 16 -18 17 0 13 21 -6 35 -13 10 -17 29 -17 91 -1 73 2 83 31
125 35 50 66 75 128 101 57 24 94 22 155 -9z m-848 -477 c59 -26 109 -76 134
-134 15 -36 15 -97 -2 -179 -7 -38 3 -42 36 -13 34 29 66 25 101 -12 34 -38
40 -95 12 -121 -22 -19 -265 -157 -309 -176 -27 -11 -37 -10 -62 3 -82 42 -84
114 -9 259 63 119 74 162 51 195 -18 26 -41 28 -72 6 -25 -17 -29 -52 -7 -80
23 -31 18 -60 -17 -89 -53 -44 -72 -50 -103 -29 -34 22 -75 106 -75 154 0 78
73 182 156 220 54 25 102 24 166 -4z"/>
<path d="M56444 6905 c-25 -38 -2 -108 64 -192 75 -96 142 -15 81 99 -30 56
-88 118 -111 118 -10 0 -25 -11 -34 -25z"/>
<path d="M42425 7486 c-27 -7 -60 -18 -72 -24 -12 -7 -31 -12 -41 -12 -27 0
-112 -40 -139 -65 -61 -57 -57 -198 6 -259 l29 -28 -48 -97 c-67 -135 -76
-172 -55 -225 9 -22 26 -51 37 -63 21 -22 81 -55 124 -67 31 -9 102 9 136 34
16 12 31 20 32 18 1 -1 8 -25 15 -53 6 -27 20 -58 29 -68 26 -29 110 -67 148
-67 27 0 41 -8 68 -37 20 -22 56 -46 86 -58 28 -11 56 -26 62 -32 6 -7 16 -13
23 -13 7 0 37 -11 67 -24 30 -14 83 -30 118 -37 54 -11 72 -10 134 6 173 43
269 120 339 274 18 38 21 65 21 161 0 106 -2 119 -29 175 -62 128 -106 170
-260 244 -49 24 -101 49 -115 56 -14 7 -44 16 -66 20 -25 4 -51 16 -65 31 -65
69 -154 94 -249 70 -34 -9 -63 -16 -65 -16 -1 0 -5 13 -8 30 -13 64 -50 96
-147 126 -52 16 -50 16 -115 0z m108 -85 c75 -34 93 -69 67 -128 -30 -66 -35
-90 -19 -78 8 6 48 21 89 34 41 13 90 30 108 37 18 8 39 14 48 14 38 0 134
-69 134 -97 0 -7 -24 -63 -54 -125 -30 -62 -76 -160 -103 -218 -82 -179 -107
-224 -134 -239 -33 -18 -69 -9 -114 30 -36 32 -44 63 -25 97 5 9 14 28 20 42
5 14 14 32 19 40 5 8 25 48 45 89 39 80 46 121 20 121 -20 0 -84 66 -84 86 0
23 -28 16 -35 -8 -4 -13 -13 -36 -20 -53 -8 -16 -16 -37 -19 -45 -3 -8 -10
-22 -15 -30 -5 -8 -28 -55 -52 -105 -51 -109 -73 -135 -112 -135 -39 0 -94 35
-112 71 -16 31 -20 20 56 172 16 31 29 62 29 68 0 6 9 22 20 36 29 37 26 71
-7 84 -70 26 -97 116 -48 161 14 13 60 34 103 47 42 12 91 29 107 36 40 18 39
18 88 -4z m643 -287 c105 -48 135 -66 183 -115 131 -131 147 -305 42 -451 -34
-48 -114 -118 -135 -118 -6 -1 -29 -9 -51 -20 -56 -27 -151 -26 -218 1 -217
89 -257 115 -257 167 0 15 18 64 40 108 22 43 40 82 40 86 0 3 24 57 54 120
29 62 65 138 80 168 14 30 31 62 38 71 11 13 46 38 56 39 1 0 59 -25 128 -56z"/>
<path d="M43081 6858 c-13 -29 -40 -86 -59 -126 -28 -57 -34 -77 -26 -90 18
-28 56 -42 114 -42 92 0 150 55 150 142 0 49 -33 128 -53 128 -6 0 -18 7 -27
15 -9 8 -30 17 -46 21 -27 5 -30 2 -53 -48z m89 -114 c0 -25 -7 -38 -29 -54
-38 -26 -49 -11 -28 38 8 21 18 45 21 56 10 29 36 0 36 -40z"/>
<path d="M41590 6885 c-14 -8 -33 -18 -43 -21 -9 -4 -32 -27 -49 -53 -30 -43
-32 -51 -29 -121 1 -41 8 -84 15 -95 7 -11 17 -36 21 -55 12 -59 38 -144 49
-159 6 -8 16 -37 23 -65 22 -100 31 -128 47 -145 9 -10 16 -30 16 -45 0 -34
37 -146 56 -167 8 -8 14 -33 14 -55 1 -21 7 -50 15 -64 8 -14 14 -42 15 -64 0
-21 8 -55 19 -75 10 -20 26 -67 35 -106 10 -38 26 -87 37 -108 10 -21 19 -47
19 -58 0 -26 38 -138 56 -163 8 -11 14 -35 14 -54 0 -18 4 -41 9 -50 17 -32
23 -119 9 -132 -31 -27 -118 -78 -144 -84 -15 -4 -48 -21 -72 -37 -23 -16 -51
-29 -61 -29 -9 0 -39 -14 -67 -32 -27 -17 -62 -35 -79 -39 -48 -12 -99 -33
-125 -50 -14 -9 -47 -24 -73 -34 -27 -10 -58 -26 -70 -35 -12 -9 -44 -24 -72
-34 -27 -11 -57 -25 -66 -33 -9 -8 -32 -18 -52 -24 -19 -5 -50 -20 -69 -33
-20 -13 -51 -29 -71 -35 -20 -7 -51 -23 -70 -35 -18 -13 -46 -26 -62 -30 -49
-12 -157 -84 -184 -122 -21 -29 -26 -47 -24 -88 2 -34 8 -56 20 -66 10 -9 23
-25 29 -35 6 -11 20 -24 31 -29 11 -5 30 -24 43 -43 20 -29 28 -33 66 -33 37
0 47 -5 66 -31 21 -28 51 -48 86 -55 29 -6 42 -14 42 -28 0 -7 11 -17 24 -20
13 -3 40 -22 60 -41 26 -25 45 -35 67 -35 22 0 44 -11 71 -36 30 -27 46 -35
66 -31 19 4 33 -4 60 -30 27 -27 43 -35 71 -35 29 0 42 -7 69 -36 27 -31 38
-36 71 -35 33 2 43 -3 67 -33 25 -29 35 -34 71 -34 36 0 46 -5 69 -36 25 -32
32 -35 63 -30 30 5 39 1 66 -29 25 -25 44 -35 76 -39 33 -4 50 -13 69 -36 14
-17 30 -30 36 -30 7 0 14 -6 17 -14 3 -8 15 -12 29 -9 24 5 47 -12 45 -32 0
-5 8 -12 19 -14 10 -2 34 -19 54 -37 33 -33 46 -38 82 -35 10 1 34 -14 54 -33
28 -27 46 -36 71 -36 26 0 42 -8 67 -35 26 -28 41 -35 70 -35 29 0 43 -7 67
-35 25 -28 38 -35 69 -35 30 0 45 -7 74 -36 29 -29 42 -35 64 -31 21 4 34 -2
64 -30 29 -29 45 -36 72 -35 28 1 40 -5 65 -33 26 -30 37 -35 73 -35 38 0 46
-4 67 -35 21 -31 28 -35 70 -35 41 0 48 -4 70 -35 20 -30 29 -35 64 -35 33 0
46 -6 74 -36 29 -31 38 -35 64 -30 26 5 36 0 65 -31 29 -30 42 -37 72 -36 27
1 42 -4 54 -20 32 -42 238 -34 238 9 0 8 6 14 13 14 26 0 57 45 57 83 0 25 5
40 15 44 21 7 55 75 55 108 0 14 7 28 15 31 8 3 24 31 35 62 11 32 29 75 39
97 41 87 51 117 51 150 0 22 5 35 13 35 8 0 24 21 36 48 37 78 36 77 72 75 19
-2 49 -3 68 -4 19 0 59 -12 89 -25 30 -13 73 -24 95 -24 22 0 48 -6 56 -14 27
-25 120 -56 165 -56 28 0 46 -5 49 -14 8 -20 110 -56 157 -56 21 0 42 -5 45
-10 14 -22 92 -52 144 -56 31 -2 57 -8 59 -14 7 -19 95 -50 141 -50 34 0 51
-5 63 -19 9 -11 34 -22 55 -26 21 -3 60 -10 86 -15 27 -6 66 -10 87 -10 23 0
42 -6 47 -14 12 -21 108 -56 153 -56 26 0 47 -7 59 -19 11 -11 41 -22 68 -26
26 -4 64 -11 83 -16 19 -5 52 -9 72 -9 23 0 40 -6 46 -16 5 -9 32 -19 68 -24
32 -5 75 -14 94 -19 19 -6 50 -11 69 -11 20 0 39 -7 46 -17 9 -12 35 -18 106
-23 52 -4 107 -12 122 -19 16 -6 44 -11 64 -11 23 0 41 -6 49 -17 10 -15 35
-19 146 -25 192 -10 239 -17 266 -42 21 -18 41 -22 155 -28 205 -12 238 -17
258 -42 16 -19 30 -22 186 -28 225 -10 271 -16 294 -39 11 -11 34 -19 57 -20
20 -1 174 -5 342 -10 347 -9 400 -14 418 -37 12 -16 77 -17 801 -17 718 0 791
1 807 16 27 24 81 29 445 38 323 8 365 12 384 37 12 15 69 22 285 33 91 5 166
9 167 10 1 0 10 10 20 20 21 22 58 27 257 39 118 7 141 11 152 27 17 23 80 33
262 43 110 6 136 10 146 25 9 11 27 17 53 17 22 0 60 7 83 15 23 8 70 15 104
15 75 0 106 8 106 26 0 10 13 14 43 14 23 0 64 7 91 15 27 8 64 15 81 15 18 0
43 8 56 19 13 10 44 21 69 24 52 5 167 25 193 33 9 3 17 12 17 20 0 10 14 14
53 14 50 0 124 26 157 54 8 8 38 16 65 19 148 17 187 26 206 46 15 16 32 21
68 21 45 0 123 28 136 50 3 5 22 10 41 10 41 0 140 33 164 55 9 8 33 15 53 15
43 0 139 36 150 56 5 9 25 14 53 14 46 0 140 33 159 55 6 7 33 15 60 17 28 3
74 14 104 26 29 12 65 21 80 21 14 1 44 2 66 3 38 3 40 2 56 -42 9 -25 28 -57
43 -72 16 -17 26 -38 26 -57 0 -29 9 -55 50 -146 10 -22 26 -60 35 -85 9 -25
25 -53 36 -63 10 -10 19 -29 19 -44 0 -26 35 -93 49 -93 5 0 11 -20 14 -45 6
-41 35 -85 56 -85 5 0 15 -10 23 -22 12 -17 27 -22 76 -26 88 -6 153 5 159 28
4 15 14 18 47 17 36 -2 46 3 73 33 25 28 37 34 66 32 28 -2 41 4 61 25 14 15
26 31 26 35 0 5 20 8 44 8 38 0 47 5 72 35 24 30 33 35 70 35 37 0 47 5 71 35
23 29 35 35 66 35 31 0 45 7 72 34 26 27 41 34 70 34 29 0 44 7 67 32 22 25
39 33 68 35 28 2 46 11 69 34 21 22 40 31 63 31 33 1 88 38 88 60 0 5 19 10
43 10 36 0 49 6 77 35 27 28 42 35 71 35 30 0 43 7 68 36 17 19 39 34 49 33
37 -3 50 2 85 36 20 19 45 35 57 35 13 0 20 7 20 20 0 13 9 22 28 26 44 9 75
27 107 61 24 24 39 31 69 31 27 0 42 6 52 21 30 43 43 50 80 44 32 -5 39 -2
65 31 26 31 36 36 73 36 38 0 46 4 67 35 21 30 29 34 62 33 31 -1 44 5 75 35
29 28 45 36 71 35 27 -1 41 6 63 31 22 24 39 33 67 35 28 2 47 12 70 35 22 22
40 31 63 31 24 0 44 10 71 35 21 19 49 38 62 41 13 3 25 14 28 23 2 11 24 25
51 34 26 9 58 30 72 46 21 26 33 31 69 31 39 0 46 4 65 34 11 19 30 38 40 41
11 4 20 10 20 14 0 5 12 21 27 37 21 22 28 41 31 84 3 48 0 59 -24 91 -25 31
-90 76 -149 103 -86 39 -194 91 -215 103 -14 8 -45 23 -70 35 -25 11 -96 45
-158 74 -61 30 -131 64 -155 74 -23 11 -49 24 -57 30 -29 19 -206 99 -235 106
-17 3 -55 22 -86 40 -31 19 -62 34 -68 34 -11 0 -47 19 -113 59 -36 22 -38 26
-38 72 0 27 7 66 15 86 8 19 15 47 15 61 0 13 9 39 19 56 10 17 28 69 40 115
11 46 25 89 30 95 5 6 19 50 31 96 11 47 27 97 36 112 8 14 17 48 20 75 4 26
11 56 15 65 5 9 11 38 14 64 2 25 10 51 18 58 16 12 47 110 47 148 0 13 8 35
18 48 18 26 38 87 51 157 4 23 12 48 18 55 6 7 20 49 33 93 12 44 30 99 41
123 13 29 19 65 19 112 0 60 -4 75 -29 112 -17 24 -49 54 -75 67 l-45 25 -71
-23 c-38 -13 -87 -35 -108 -50 -20 -15 -52 -33 -70 -39 -18 -6 -46 -21 -63
-32 -27 -20 -78 -48 -184 -103 -22 -11 -83 -47 -136 -79 -53 -32 -100 -58
-106 -58 -5 0 -32 -16 -59 -35 -27 -19 -56 -35 -65 -35 -9 0 -35 -13 -57 -30
-23 -16 -45 -30 -49 -30 -5 0 -28 -11 -53 -24 -25 -13 -74 -39 -110 -58 -36
-19 -99 -56 -140 -81 -41 -26 -79 -47 -84 -47 -5 0 -33 -16 -62 -35 -29 -19
-58 -35 -64 -35 -7 0 -38 -16 -70 -35 -32 -19 -63 -35 -70 -35 -7 0 -38 -16
-70 -35 -32 -19 -63 -35 -69 -35 -7 0 -37 -12 -68 -27 l-56 -26 -26 30 c-34
40 -101 148 -101 163 0 6 -16 32 -35 57 -19 25 -35 52 -35 60 0 18 -27 72 -49
98 -9 11 -23 38 -30 60 -7 22 -21 49 -31 60 -9 11 -26 44 -38 73 -29 73 -74
127 -128 153 l-44 23 -72 -24 c-40 -13 -91 -36 -114 -52 -23 -15 -48 -28 -56
-28 -8 0 -38 -16 -68 -35 -30 -19 -61 -35 -69 -35 -8 0 -35 -13 -60 -28 -25
-15 -77 -39 -116 -51 -38 -13 -81 -32 -94 -42 -13 -11 -29 -19 -36 -19 -7 0
-44 -15 -81 -33 -183 -89 -222 -107 -230 -107 -5 0 -36 -13 -69 -29 -33 -16
-85 -37 -115 -47 -30 -9 -71 -25 -90 -34 -19 -10 -66 -28 -105 -40 -38 -12
-74 -25 -80 -29 -5 -5 -35 -16 -65 -26 -30 -10 -75 -28 -100 -41 -25 -13 -52
-24 -60 -24 -19 -1 -120 -34 -146 -49 -10 -6 -55 -20 -99 -32 -44 -11 -89 -26
-100 -33 -11 -7 -54 -20 -95 -30 -41 -10 -93 -26 -115 -36 -22 -10 -76 -26
-120 -35 -44 -9 -102 -25 -130 -35 -27 -10 -95 -28 -150 -40 -55 -12 -113 -28
-130 -35 -16 -7 -79 -23 -140 -34 -60 -12 -126 -27 -145 -35 -19 -8 -80 -22
-135 -31 -55 -9 -116 -23 -135 -30 -39 -15 -179 -40 -285 -51 -38 -4 -87 -13
-109 -20 -42 -15 -196 -39 -316 -49 -41 -4 -115 -13 -165 -22 -152 -25 -214
-32 -385 -43 -91 -6 -195 -17 -232 -26 -101 -23 -391 -33 -928 -33 -533 -1
-864 11 -944 33 -28 8 -109 18 -181 21 -135 7 -289 24 -435 49 -47 8 -119 17
-160 20 -121 10 -230 27 -300 46 -36 10 -94 21 -130 24 -101 10 -252 37 -287
52 -17 8 -38 14 -46 14 -28 0 -212 39 -252 54 -22 8 -71 20 -110 26 -38 7
-104 23 -145 35 -41 13 -111 31 -155 40 -44 9 -93 23 -110 31 -16 7 -73 23
-125 34 -52 12 -116 30 -143 41 -26 11 -80 28 -120 39 -39 10 -103 30 -140 44
-37 14 -76 26 -85 26 -10 0 -33 8 -53 19 -19 10 -70 29 -112 41 -43 12 -100
32 -126 46 -27 13 -55 24 -63 24 -8 0 -31 9 -52 19 -21 11 -76 32 -122 47 -46
14 -86 30 -89 34 -3 4 -37 18 -77 30 -40 13 -104 37 -143 55 -38 18 -95 44
-125 58 -53 24 -104 48 -292 136 -48 23 -96 41 -106 41 -10 0 -42 16 -72 35
-30 19 -62 35 -70 35 -9 0 -40 16 -70 35 -30 19 -61 35 -69 35 -8 0 -36 14
-63 30 -27 17 -79 40 -115 52 l-65 21 -45 -24 c-56 -30 -110 -95 -135 -162
-11 -29 -25 -59 -33 -67 -21 -24 -45 -77 -45 -99 0 -11 -8 -25 -19 -30 -20
-11 -51 -78 -51 -111 0 -11 -4 -20 -10 -20 -15 0 -60 -72 -60 -97 0 -13 -4
-23 -8 -23 -5 0 -28 -29 -51 -65 -23 -36 -48 -68 -56 -71 -8 -3 -39 6 -69 20
-30 14 -64 26 -75 26 -11 0 -26 6 -33 13 -22 22 -85 57 -101 57 -8 0 -38 16
-67 35 -29 19 -61 35 -72 35 -10 0 -40 16 -65 35 -25 19 -52 35 -60 35 -7 0
-51 25 -97 55 -46 30 -99 60 -117 67 -19 6 -47 21 -64 33 -16 13 -48 29 -70
36 -22 7 -49 20 -60 29 -36 29 -74 50 -90 50 -9 0 -37 16 -62 35 -25 19 -55
35 -65 35 -11 0 -37 13 -57 29 -20 15 -47 32 -61 36 -13 4 -36 16 -50 25 -68
48 -140 91 -174 105 -20 9 -56 29 -78 45 -23 17 -48 30 -57 30 -9 0 -38 16
-65 35 -27 19 -61 35 -74 35 -14 0 -33 6 -41 14 -26 22 -64 26 -91 11z m481
-633 c80 -40 115 -60 139 -78 8 -7 26 -15 40 -19 14 -4 43 -19 65 -34 61 -40
73 -46 175 -99 52 -27 111 -59 130 -70 19 -12 46 -26 60 -32 14 -5 33 -15 43
-20 10 -6 41 -23 70 -39 29 -16 68 -38 87 -50 19 -11 46 -25 60 -31 14 -5 34
-15 45 -22 11 -6 70 -37 130 -69 179 -93 195 -102 200 -119 5 -15 -11 -62 -35
-100 -5 -8 -15 -28 -23 -45 -8 -16 -33 -66 -57 -110 -57 -104 -102 -190 -184
-350 -37 -71 -77 -148 -90 -170 -13 -22 -59 -107 -101 -190 -42 -82 -87 -168
-100 -190 -68 -118 -95 -183 -95 -235 0 -49 3 -54 56 -110 47 -49 78 -70 197
-128 78 -39 149 -73 157 -76 8 -3 33 -17 55 -31 22 -14 47 -28 55 -31 30 -13
147 -67 235 -109 186 -88 224 -105 232 -105 5 0 35 -13 68 -30 33 -16 65 -30
72 -30 6 0 28 -9 50 -19 21 -11 62 -30 91 -43 44 -19 52 -27 52 -49 0 -28 -35
-114 -49 -123 -5 -3 -12 -22 -15 -41 -4 -19 -15 -52 -26 -72 -28 -55 -67 -145
-75 -170 -3 -13 -18 -43 -31 -68 -20 -34 -32 -45 -50 -45 -19 0 -204 86 -348
162 -10 5 -131 67 -270 137 -138 71 -267 138 -286 149 -19 12 -46 26 -60 32
-14 5 -33 15 -42 20 -10 6 -23 10 -30 10 -6 0 -19 6 -27 14 -9 8 -72 44 -141
79 -69 36 -141 74 -160 85 -19 12 -55 30 -80 41 -25 12 -52 25 -60 31 -8 5
-78 41 -154 80 -77 39 -144 74 -150 79 -14 11 -118 67 -264 143 -62 32 -143
75 -180 95 -37 20 -85 45 -107 55 -22 10 -47 23 -55 28 -8 6 -34 19 -57 31
-49 24 -65 41 -58 60 5 13 158 95 250 133 22 9 47 21 55 26 8 6 26 15 40 21
13 5 85 40 160 75 135 66 178 86 345 164 237 111 254 121 300 173 39 45 45 58
45 96 0 25 -9 72 -19 105 -11 34 -34 104 -50 157 -17 53 -31 105 -31 116 0 10
-6 28 -14 39 -8 11 -18 38 -21 60 -4 21 -12 48 -18 59 -6 11 -16 43 -23 70
-13 54 -32 110 -45 136 -4 9 -11 34 -15 55 -4 22 -20 75 -36 119 -17 44 -38
112 -48 150 -10 39 -26 91 -34 117 -9 26 -21 66 -26 90 -5 24 -12 55 -16 71
-9 37 6 35 97 -11z m15483 30 c3 -5 -1 -28 -9 -53 -8 -24 -22 -71 -30 -104 -9
-33 -23 -76 -30 -95 -8 -19 -17 -53 -20 -75 -4 -22 -10 -44 -15 -50 -4 -5 -18
-48 -30 -95 -12 -47 -28 -99 -36 -117 -8 -17 -14 -39 -14 -50 0 -10 -9 -35
-20 -56 -11 -20 -20 -45 -20 -55 0 -10 -6 -38 -14 -63 -8 -24 -24 -78 -35
-119 -12 -41 -28 -88 -36 -105 -7 -16 -16 -48 -20 -70 -4 -22 -10 -44 -15 -50
-19 -25 -45 -136 -45 -197 0 -59 3 -70 31 -105 17 -21 46 -46 65 -55 19 -9 68
-33 109 -53 41 -20 82 -40 90 -45 8 -5 47 -23 85 -41 39 -17 129 -59 200 -94
72 -34 146 -70 165 -79 19 -9 42 -21 50 -26 8 -5 48 -24 89 -42 163 -73 296
-144 299 -159 4 -24 -99 -84 -398 -235 -52 -26 -113 -59 -135 -73 -38 -24 -70
-41 -305 -162 -52 -27 -113 -61 -135 -74 -22 -14 -51 -30 -65 -36 -14 -6 -36
-16 -50 -23 -14 -7 -88 -46 -165 -85 -77 -40 -156 -82 -175 -93 -31 -19 -501
-260 -575 -295 -16 -8 -37 -18 -45 -24 -8 -5 -26 -14 -40 -19 -14 -6 -32 -14
-40 -20 -8 -5 -35 -19 -60 -30 -25 -11 -52 -25 -60 -30 -8 -6 -26 -15 -40 -20
-14 -6 -32 -15 -40 -20 -8 -6 -26 -15 -40 -20 -14 -6 -52 -25 -86 -42 -65 -34
-107 -34 -117 -1 -3 10 -12 29 -20 43 -8 14 -23 50 -32 80 -10 30 -27 71 -37
90 -10 19 -18 40 -18 45 0 6 -8 29 -19 51 -65 135 -81 177 -77 192 5 16 80 62
100 62 9 0 43 15 161 71 33 16 75 32 92 35 18 4 38 13 44 20 6 8 16 14 21 14
5 0 65 27 134 60 68 33 127 60 132 60 6 0 226 109 317 158 22 11 80 40 130 63
160 76 214 159 180 278 -9 31 -22 63 -29 71 -16 21 -88 155 -185 345 -40 77
-64 122 -126 230 -48 85 -55 99 -55 117 0 9 -4 19 -9 23 -6 3 -16 18 -24 33
-36 72 -102 190 -118 214 -11 14 -19 31 -19 37 0 6 -10 27 -22 48 -42 74 -88
174 -88 192 0 23 25 43 98 80 9 5 40 20 67 35 28 14 109 55 180 92 72 36 144
74 160 83 17 10 71 39 120 65 50 26 97 54 106 62 8 8 22 14 30 14 8 0 19 4 25
9 5 5 36 23 69 41 33 17 87 47 120 66 33 18 70 38 83 44 12 5 46 25 75 43 28
18 70 41 92 50 22 10 51 24 65 32 28 16 47 19 54 7z m-13364 -67 c8 -7 26 -16
40 -20 14 -4 32 -13 40 -20 8 -8 27 -16 42 -20 15 -4 32 -13 39 -21 6 -8 16
-14 21 -14 5 0 33 -11 61 -24 153 -70 194 -88 212 -96 11 -4 54 -24 96 -44 41
-20 80 -36 85 -36 5 0 36 -14 68 -30 32 -17 64 -30 70 -30 7 0 29 -9 51 -20
22 -11 44 -20 50 -20 5 0 24 -7 40 -16 17 -9 55 -25 85 -35 30 -11 67 -27 82
-35 14 -8 32 -14 40 -14 7 0 27 -7 43 -16 17 -9 64 -27 105 -40 128 -40 194
-64 204 -74 6 -6 21 -10 34 -10 13 0 44 -8 70 -19 26 -10 82 -29 125 -42 43
-12 80 -27 83 -31 3 -4 20 -8 37 -8 18 0 48 -8 67 -18 19 -10 71 -27 115 -37
44 -10 89 -24 100 -32 11 -7 35 -13 55 -13 19 0 49 -7 65 -16 30 -16 208 -67
297 -84 25 -4 68 -15 95 -24 48 -15 167 -44 273 -65 30 -6 84 -19 120 -27 36
-9 88 -19 115 -24 28 -4 79 -15 115 -23 36 -9 90 -18 120 -21 30 -3 102 -15
160 -26 58 -11 141 -25 185 -30 44 -5 103 -14 130 -20 28 -6 91 -15 140 -20
50 -4 117 -13 150 -20 33 -6 116 -15 185 -20 69 -6 170 -14 225 -20 291 -29
478 -35 1040 -35 560 0 778 8 1035 35 52 6 151 15 220 20 69 5 154 14 190 20
36 6 106 15 155 20 50 5 119 16 155 24 36 9 82 15 104 16 21 0 103 14 183 30
79 17 163 30 186 30 23 0 80 9 127 19 47 11 130 29 185 41 55 12 113 26 129
31 16 5 40 9 53 9 24 0 133 27 223 55 25 8 74 18 108 24 35 6 69 14 75 19 7 5
48 17 92 26 44 10 94 24 110 32 17 7 48 16 70 19 22 4 54 13 70 20 17 8 66 22
110 31 44 9 89 22 100 29 11 7 40 17 65 23 56 13 220 68 240 80 9 5 31 13 50
17 45 9 182 55 195 64 6 4 43 18 83 31 40 12 75 27 78 31 3 5 12 9 21 9 9 0
35 9 57 19 23 11 69 29 104 41 35 11 71 25 80 30 9 6 56 25 104 44 98 39 127
51 248 108 47 22 94 43 105 48 11 5 49 22 85 38 36 16 80 35 99 43 19 8 100
47 180 87 95 48 153 71 166 68 15 -4 41 -43 89 -138 37 -73 77 -149 88 -168
12 -19 46 -84 78 -145 31 -60 61 -119 68 -130 7 -11 17 -31 22 -45 6 -14 20
-41 32 -60 11 -19 47 -84 78 -145 32 -60 77 -146 100 -190 23 -44 63 -120 88
-170 25 -49 56 -108 70 -130 14 -22 57 -101 94 -175 38 -74 77 -149 87 -166
10 -16 22 -41 26 -55 4 -13 14 -32 23 -42 26 -30 100 -189 95 -206 -4 -17
-377 -211 -405 -211 -9 0 -21 -7 -28 -15 -7 -8 -17 -15 -22 -15 -5 0 -42 -16
-81 -35 -39 -19 -78 -35 -88 -35 -9 0 -22 -7 -29 -15 -7 -8 -17 -15 -22 -15
-6 0 -22 -8 -36 -18 -15 -10 -54 -26 -87 -36 -33 -10 -89 -34 -125 -52 -35
-19 -69 -34 -74 -34 -9 0 -78 -29 -116 -49 -9 -5 -31 -12 -50 -16 -19 -4 -39
-11 -45 -15 -5 -4 -64 -29 -130 -54 -66 -26 -128 -51 -137 -56 -10 -6 -22 -10
-28 -10 -6 0 -29 -9 -53 -19 -23 -11 -75 -29 -116 -41 -40 -12 -85 -29 -100
-36 -14 -8 -34 -14 -44 -14 -11 0 -33 -7 -50 -15 -18 -8 -88 -33 -156 -55 -69
-23 -133 -46 -143 -51 -10 -5 -37 -14 -60 -19 -24 -4 -81 -22 -128 -38 -47
-16 -114 -37 -150 -46 -36 -10 -78 -22 -95 -28 -16 -6 -102 -29 -190 -51 -160
-39 -229 -58 -360 -97 -38 -11 -77 -20 -86 -20 -8 0 -35 -6 -60 -14 -24 -8
-80 -22 -124 -31 -44 -9 -118 -25 -165 -35 -283 -62 -377 -80 -421 -80 -19 0
-56 -7 -84 -16 -27 -8 -81 -19 -120 -24 -38 -5 -99 -16 -135 -24 -36 -9 -86
-15 -111 -16 -25 0 -59 -4 -75 -10 -35 -12 -221 -38 -354 -51 -52 -4 -135 -13
-185 -19 -49 -5 -135 -14 -190 -20 -55 -5 -140 -14 -190 -20 -226 -26 -507
-33 -1260 -34 -765 0 -908 4 -1200 35 -55 5 -156 14 -225 19 -69 4 -154 14
-190 20 -36 6 -101 15 -145 20 -152 17 -250 30 -305 40 -30 5 -95 14 -145 20
-49 6 -117 17 -150 24 -33 8 -90 17 -127 20 -37 3 -81 12 -97 21 -17 8 -46 15
-65 15 -33 0 -310 52 -451 85 -33 8 -94 21 -135 30 -41 9 -93 23 -115 30 -22
8 -60 16 -85 20 -25 3 -65 12 -90 20 -87 28 -186 54 -260 70 -100 22 -208 53
-247 71 -17 8 -39 14 -49 14 -23 0 -131 29 -169 45 -16 7 -46 16 -65 20 -19 4
-41 12 -48 17 -7 6 -34 15 -60 19 -26 5 -60 15 -77 23 -37 17 -177 64 -228 77
-21 5 -48 16 -60 23 -12 8 -40 17 -62 21 -22 4 -44 10 -50 14 -5 5 -41 19 -80
32 -38 13 -79 29 -90 36 -11 7 -28 13 -39 13 -11 0 -38 8 -60 18 -23 10 -66
26 -96 36 -54 17 -96 34 -155 63 -16 8 -57 24 -90 35 -33 11 -96 37 -140 58
-120 56 -152 70 -160 70 -4 0 -41 16 -82 35 -41 19 -81 35 -88 35 -7 0 -18 7
-25 15 -7 8 -19 15 -27 15 -9 0 -48 15 -87 34 -39 18 -78 36 -86 40 -8 3 -22
10 -30 15 -8 5 -69 35 -135 66 -213 101 -275 135 -276 154 -2 26 2 45 15 71
32 62 138 263 155 292 11 18 49 92 86 163 37 72 91 175 120 230 30 55 75 141
100 190 24 50 56 108 69 130 14 22 56 101 94 175 38 74 83 160 100 190 16 30
60 114 97 185 121 235 171 325 189 338 14 9 56 0 76 -18z"/>
<path d="M45664 5049 c-50 -25 -73 -130 -36 -167 15 -15 136 -68 255 -112 l29
-10 -22 -18 c-25 -20 -300 -737 -300 -784 0 -54 100 -118 186 -118 63 0 72 17
219 435 76 215 139 392 142 395 2 2 62 -15 132 -38 137 -45 157 -46 195 -3 11
12 21 41 24 69 7 76 -10 88 -238 167 -107 37 -269 96 -358 131 -166 65 -191
71 -228 53z"/>
<path d="M54025 4909 c-27 -11 -158 -56 -290 -100 -137 -46 -249 -89 -262
-101 -66 -62 -19 -178 72 -178 15 0 103 25 197 56 93 31 171 54 173 52 6 -7
-77 -338 -141 -560 -80 -276 -88 -349 -43 -394 52 -52 86 -47 391 56 360 121
414 144 434 183 22 41 14 111 -16 142 -49 52 -71 51 -246 -11 -87 -31 -185
-64 -217 -74 -54 -17 -58 -17 -52 -2 47 111 205 762 205 842 0 96 -89 135
-205 89z"/>
<path d="M52280 4843 c-14 -6 -266 -236 -282 -258 -14 -19 -8 -62 10 -78 32
-29 75 -20 199 42 126 63 197 119 208 164 21 81 -59 158 -135 130z"/>
<path d="M47280 4511 c-85 -20 -139 -60 -174 -130 -13 -25 -69 -223 -125 -439
-101 -388 -102 -393 -85 -427 19 -40 20 -40 244 -94 238 -57 405 -91 446 -91
52 0 94 44 94 100 0 85 -15 93 -251 144 -228 50 -241 54 -235 74 3 9 13 47 22
84 19 78 50 118 91 118 15 0 82 -12 149 -27 131 -28 161 -27 200 12 18 19 24
35 24 70 0 77 -27 95 -189 129 -90 19 -147 26 -173 22 -36 -6 -40 -5 -34 11 4
10 17 51 29 92 29 98 59 131 119 131 25 0 96 -11 158 -25 174 -38 225 -33 255
25 26 50 13 106 -31 135 -33 21 -326 83 -421 89 -43 3 -94 1 -113 -3z"/>
<path d="M52223 4461 c-142 -39 -227 -103 -264 -200 -33 -89 -27 -182 35 -571
55 -343 56 -345 86 -372 25 -23 39 -28 85 -28 99 0 155 39 155 110 0 19 -9 82
-20 140 -11 58 -20 115 -20 128 0 36 42 69 116 91 38 11 86 32 106 46 l37 25
11 -58 c44 -215 72 -328 87 -344 66 -73 253 -16 253 77 0 24 -149 671 -167
724 -37 111 -88 178 -167 219 -70 36 -225 42 -333 13z m207 -230 c27 -30 60
-124 60 -172 0 -38 -37 -65 -123 -88 -44 -12 -92 -28 -108 -36 -27 -15 -29
-14 -34 7 -15 71 -25 148 -25 198 0 48 4 60 28 82 35 33 45 36 115 37 53 1 62
-2 87 -28z"/>
<path d="M48793 4290 c-102 -36 -156 -97 -193 -218 -11 -34 -40 -224 -65 -421
-44 -341 -45 -361 -30 -391 42 -81 212 -94 250 -19 8 15 22 87 30 158 7 72 19
140 25 151 16 29 50 40 129 40 38 0 87 7 110 15 l41 14 -1 -37 c0 -20 -6 -103
-12 -185 -14 -165 -9 -197 35 -230 32 -24 129 -34 170 -18 56 21 60 38 80 364
11 166 18 357 16 424 -4 116 -6 125 -38 190 -45 87 -109 134 -224 163 -105 27
-250 27 -323 0z m275 -216 c31 -21 52 -73 52 -131 0 -68 -16 -118 -43 -131
-12 -6 -75 -12 -139 -14 -113 -3 -117 -2 -113 17 2 11 9 61 15 110 18 143 51
181 150 170 30 -3 65 -13 78 -21z"/>
<path d="M50890 4283 c-24 -9 -52 -36 -61 -62 -6 -14 -5 -86 2 -183 6 -87 9
-161 7 -164 -3 -2 -59 -8 -124 -13 -74 -6 -139 -17 -171 -29 l-51 -19 -7 176
c-3 97 -11 191 -17 209 -14 47 -55 65 -136 60 -57 -4 -68 -8 -90 -33 l-25 -30
7 -499 c7 -529 9 -541 56 -566 33 -18 103 -23 148 -11 31 9 48 21 63 44 17 29
19 48 17 212 -3 161 -1 184 15 209 24 36 65 52 157 61 40 3 96 15 122 25 l48
18 4 -21 c3 -12 11 -119 19 -237 9 -146 18 -222 27 -237 20 -31 65 -47 127
-46 64 2 114 28 128 67 6 19 -2 157 -28 474 -49 573 -44 541 -78 574 -24 24
-35 28 -86 27 -32 0 -65 -3 -73 -6z"/>
</g>
</svg>
