<?xml version="1.0" standalone="no"?>
<!DOCTYPE svg PUBLIC "-//W3C//DTD SVG 20010904//EN"
 "http://www.w3.org/TR/2001/REC-SVG-20010904/DTD/svg10.dtd">
<svg version="1.0" xmlns="http://www.w3.org/2000/svg"
 width="100.000000pt" height="100.000000pt" viewBox="0 0 100.000000 100.000000"
 preserveAspectRatio="xMidYMid meet">

<g transform="translate(0.000000,100.000000) scale(0.100000,-0.100000)"
fill="#000000" stroke="none">
<path d="M12 988 c-16 -16 -15 -43 1 -56 7 -6 46 -12 87 -14 l74 -3 56 -278
c54 -266 58 -280 89 -310 l31 -32 228 -3 c125 -2 241 -1 258 3 41 7 81 48 94
94 5 20 24 111 41 203 26 136 29 171 19 183 -11 13 -62 15 -359 15 l-347 0
-18 92 c-10 51 -22 98 -28 105 -14 17 -209 18 -226 1z m898 -280 c0 -2 -14
-73 -30 -158 -21 -109 -35 -159 -47 -167 -24 -18 -432 -18 -455 0 -11 8 -26
60 -43 147 -15 74 -29 145 -32 158 l-5 22 306 0 c168 0 306 -1 306 -2z"/>
<path d="M319 181 c-17 -18 -29 -40 -29 -56 0 -35 50 -85 85 -85 35 0 85 50
85 85 0 35 -50 85 -85 85 -16 0 -38 -12 -56 -29z"/>
<path d="M779 181 c-17 -18 -29 -40 -29 -56 0 -34 50 -85 84 -85 41 0 80 41
80 85 0 29 -7 43 -28 61 -37 32 -71 30 -107 -5z"/>
</g>
</svg>
